G75*
%MOIN*%
%OFA0B0*%
%FSLAX25Y25*%
%IPPOS*%
%LPD*%
%AMOC8*
5,1,8,0,0,1.08239X$1,22.5*
%
%ADD10C,0.05600*%
%ADD11OC8,0.06600*%
%ADD12C,0.06000*%
%ADD13C,0.07400*%
%ADD14C,0.00409*%
%ADD15C,0.01600*%
%ADD16C,0.04362*%
D10*
X0069000Y0012850D02*
X0069000Y0015650D01*
X0079000Y0015650D02*
X0079000Y0012850D01*
X0089000Y0012850D02*
X0089000Y0015650D01*
X0099000Y0015650D02*
X0099000Y0012850D01*
X0109000Y0012850D02*
X0109000Y0015650D01*
X0119000Y0015650D02*
X0119000Y0012850D01*
X0129000Y0012850D02*
X0129000Y0015650D01*
X0139000Y0015650D02*
X0139000Y0012850D01*
X0139000Y0202850D02*
X0139000Y0205650D01*
X0149000Y0205650D02*
X0149000Y0202850D01*
X0159000Y0202850D02*
X0159000Y0205650D01*
X0169000Y0205650D02*
X0169000Y0202850D01*
X0179000Y0202850D02*
X0179000Y0205650D01*
X0189000Y0205650D02*
X0189000Y0202850D01*
X0199000Y0202850D02*
X0199000Y0205650D01*
X0209000Y0205650D02*
X0209000Y0202850D01*
X0123000Y0202850D02*
X0123000Y0205650D01*
X0113000Y0205650D02*
X0113000Y0202850D01*
X0103000Y0202850D02*
X0103000Y0205650D01*
X0093000Y0205650D02*
X0093000Y0202850D01*
X0083000Y0202850D02*
X0083000Y0205650D01*
X0073000Y0205650D02*
X0073000Y0202850D01*
X0063000Y0202850D02*
X0063000Y0205650D01*
X0053000Y0205650D02*
X0053000Y0202850D01*
X0043000Y0202850D02*
X0043000Y0205650D01*
X0033000Y0205650D02*
X0033000Y0202850D01*
D11*
X0159500Y0177750D03*
X0169500Y0177750D03*
X0179500Y0177750D03*
X0179500Y0167750D03*
X0169500Y0167750D03*
X0159500Y0167750D03*
X0189500Y0167750D03*
X0189500Y0177750D03*
D12*
X0044000Y0097750D02*
X0044000Y0094750D01*
X0034000Y0094750D02*
X0034000Y0097750D01*
X0024000Y0097750D02*
X0024000Y0094750D01*
D13*
X0023500Y0167750D03*
X0023500Y0177750D03*
X0219500Y0107250D03*
X0219500Y0097250D03*
X0219500Y0087250D03*
X0219500Y0077250D03*
D14*
X0201914Y0161408D02*
X0199172Y0161408D01*
X0201914Y0161408D02*
X0201914Y0157092D01*
X0199172Y0157092D01*
X0199172Y0161408D01*
X0199172Y0157500D02*
X0201914Y0157500D01*
X0201914Y0157908D02*
X0199172Y0157908D01*
X0199172Y0158316D02*
X0201914Y0158316D01*
X0201914Y0158724D02*
X0199172Y0158724D01*
X0199172Y0159132D02*
X0201914Y0159132D01*
X0201914Y0159540D02*
X0199172Y0159540D01*
X0199172Y0159948D02*
X0201914Y0159948D01*
X0201914Y0160356D02*
X0199172Y0160356D01*
X0199172Y0160764D02*
X0201914Y0160764D01*
X0201914Y0161172D02*
X0199172Y0161172D01*
X0194828Y0161408D02*
X0192086Y0161408D01*
X0194828Y0161408D02*
X0194828Y0157092D01*
X0192086Y0157092D01*
X0192086Y0161408D01*
X0192086Y0157500D02*
X0194828Y0157500D01*
X0194828Y0157908D02*
X0192086Y0157908D01*
X0192086Y0158316D02*
X0194828Y0158316D01*
X0194828Y0158724D02*
X0192086Y0158724D01*
X0192086Y0159132D02*
X0194828Y0159132D01*
X0194828Y0159540D02*
X0192086Y0159540D01*
X0192086Y0159948D02*
X0194828Y0159948D01*
X0194828Y0160356D02*
X0192086Y0160356D01*
X0192086Y0160764D02*
X0194828Y0160764D01*
X0194828Y0161172D02*
X0192086Y0161172D01*
D15*
X0022223Y0008756D02*
X0021617Y0008150D01*
X0215063Y0008150D01*
X0215070Y0008151D01*
X0215084Y0008156D01*
X0215094Y0008166D01*
X0215099Y0008180D01*
X0215100Y0008187D01*
X0215100Y0015026D01*
X0215694Y0016459D01*
X0216791Y0017556D01*
X0216791Y0017556D01*
X0225100Y0025865D01*
X0225100Y0026633D01*
X0224494Y0026027D01*
X0220929Y0024551D01*
X0217071Y0024551D01*
X0213506Y0026027D01*
X0210777Y0028756D01*
X0209301Y0032321D01*
X0209301Y0036179D01*
X0210777Y0039744D01*
X0213506Y0042473D01*
X0217071Y0043949D01*
X0220929Y0043949D01*
X0224494Y0042473D01*
X0225100Y0041867D01*
X0225100Y0136633D01*
X0224494Y0136027D01*
X0220929Y0134551D01*
X0217071Y0134551D01*
X0213506Y0136027D01*
X0210777Y0138756D01*
X0209301Y0142321D01*
X0209301Y0146179D01*
X0210777Y0149744D01*
X0213506Y0152473D01*
X0217071Y0153949D01*
X0220929Y0153949D01*
X0224098Y0152637D01*
X0216791Y0159944D01*
X0216791Y0159944D01*
X0215694Y0161041D01*
X0215100Y0162474D01*
X0215100Y0206635D01*
X0211385Y0210350D01*
X0026617Y0210350D01*
X0027223Y0209744D01*
X0028470Y0206733D01*
X0029100Y0208256D01*
X0030394Y0209550D01*
X0032085Y0210250D01*
X0033915Y0210250D01*
X0035606Y0209550D01*
X0036900Y0208256D01*
X0037600Y0206565D01*
X0037600Y0201935D01*
X0036900Y0200244D01*
X0035606Y0198950D01*
X0033915Y0198250D01*
X0032085Y0198250D01*
X0030394Y0198950D01*
X0029100Y0200244D01*
X0028470Y0201767D01*
X0027223Y0198756D01*
X0024494Y0196027D01*
X0020929Y0194551D01*
X0017071Y0194551D01*
X0013506Y0196027D01*
X0010777Y0198756D01*
X0009301Y0202321D01*
X0009301Y0206179D01*
X0010777Y0209744D01*
X0011383Y0210350D01*
X0008055Y0210350D01*
X0007905Y0210301D01*
X0007900Y0210302D01*
X0007900Y0021867D01*
X0008506Y0022473D01*
X0012071Y0023949D01*
X0015929Y0023949D01*
X0019494Y0022473D01*
X0022223Y0019744D01*
X0023699Y0016179D01*
X0023699Y0012321D01*
X0022223Y0008756D01*
X0022590Y0009644D02*
X0065701Y0009644D01*
X0065100Y0010244D02*
X0066394Y0008950D01*
X0068085Y0008250D01*
X0069915Y0008250D01*
X0071606Y0008950D01*
X0072900Y0010244D01*
X0073600Y0011935D01*
X0073600Y0016565D01*
X0072900Y0018256D01*
X0071606Y0019550D01*
X0069915Y0020250D01*
X0068085Y0020250D01*
X0066394Y0019550D01*
X0065100Y0018256D01*
X0064400Y0016565D01*
X0064400Y0011935D01*
X0065100Y0010244D01*
X0064687Y0011243D02*
X0023253Y0011243D01*
X0023699Y0012841D02*
X0064400Y0012841D01*
X0064400Y0014440D02*
X0023699Y0014440D01*
X0023699Y0016038D02*
X0064400Y0016038D01*
X0064844Y0017637D02*
X0023096Y0017637D01*
X0022433Y0019235D02*
X0066080Y0019235D01*
X0071920Y0019235D02*
X0076080Y0019235D01*
X0076394Y0019550D02*
X0075100Y0018256D01*
X0074400Y0016565D01*
X0074400Y0011935D01*
X0075100Y0010244D01*
X0076394Y0008950D01*
X0078085Y0008250D01*
X0079915Y0008250D01*
X0081606Y0008950D01*
X0082900Y0010244D01*
X0083600Y0011935D01*
X0083600Y0016565D01*
X0082900Y0018256D01*
X0081606Y0019550D01*
X0079915Y0020250D01*
X0078085Y0020250D01*
X0076394Y0019550D01*
X0074844Y0017637D02*
X0073156Y0017637D01*
X0073600Y0016038D02*
X0074400Y0016038D01*
X0074400Y0014440D02*
X0073600Y0014440D01*
X0073600Y0012841D02*
X0074400Y0012841D01*
X0074687Y0011243D02*
X0073313Y0011243D01*
X0072299Y0009644D02*
X0075701Y0009644D01*
X0082299Y0009644D02*
X0085701Y0009644D01*
X0085100Y0010244D02*
X0086394Y0008950D01*
X0088085Y0008250D01*
X0089915Y0008250D01*
X0091606Y0008950D01*
X0092900Y0010244D01*
X0093600Y0011935D01*
X0093600Y0016565D01*
X0092900Y0018256D01*
X0091606Y0019550D01*
X0089915Y0020250D01*
X0088085Y0020250D01*
X0086394Y0019550D01*
X0085100Y0018256D01*
X0084400Y0016565D01*
X0084400Y0011935D01*
X0085100Y0010244D01*
X0084687Y0011243D02*
X0083313Y0011243D01*
X0083600Y0012841D02*
X0084400Y0012841D01*
X0084400Y0014440D02*
X0083600Y0014440D01*
X0083600Y0016038D02*
X0084400Y0016038D01*
X0084844Y0017637D02*
X0083156Y0017637D01*
X0081920Y0019235D02*
X0086080Y0019235D01*
X0091920Y0019235D02*
X0096080Y0019235D01*
X0096394Y0019550D02*
X0095100Y0018256D01*
X0094400Y0016565D01*
X0094400Y0011935D01*
X0095100Y0010244D01*
X0096394Y0008950D01*
X0098085Y0008250D01*
X0099915Y0008250D01*
X0101606Y0008950D01*
X0102900Y0010244D01*
X0103600Y0011935D01*
X0103600Y0016565D01*
X0102900Y0018256D01*
X0101606Y0019550D01*
X0101600Y0019552D01*
X0101600Y0123673D01*
X0117077Y0139150D01*
X0181017Y0139150D01*
X0181973Y0139546D01*
X0190973Y0148546D01*
X0191704Y0149277D01*
X0192100Y0150233D01*
X0192100Y0155088D01*
X0195657Y0155088D01*
X0196831Y0156262D01*
X0196831Y0162238D01*
X0195657Y0163412D01*
X0192375Y0163412D01*
X0194600Y0165638D01*
X0194600Y0169862D01*
X0191712Y0172750D01*
X0194600Y0175638D01*
X0194600Y0177615D01*
X0189635Y0177615D01*
X0189635Y0177885D01*
X0189365Y0177885D01*
X0189365Y0182850D01*
X0187388Y0182850D01*
X0184500Y0179962D01*
X0182100Y0182362D01*
X0182100Y0194267D01*
X0181704Y0195223D01*
X0180973Y0195954D01*
X0180017Y0196350D01*
X0125600Y0196350D01*
X0125600Y0198948D01*
X0125606Y0198950D01*
X0126900Y0200244D01*
X0127600Y0201935D01*
X0127600Y0206565D01*
X0126900Y0208256D01*
X0125606Y0209550D01*
X0123915Y0210250D01*
X0122085Y0210250D01*
X0120394Y0209550D01*
X0119100Y0208256D01*
X0118400Y0206565D01*
X0118400Y0201935D01*
X0119100Y0200244D01*
X0120394Y0198950D01*
X0120400Y0198948D01*
X0120400Y0193233D01*
X0120796Y0192277D01*
X0121527Y0191546D01*
X0122483Y0191150D01*
X0176900Y0191150D01*
X0176900Y0182362D01*
X0174500Y0179962D01*
X0172100Y0182362D01*
X0172100Y0186767D01*
X0171704Y0187723D01*
X0169704Y0189723D01*
X0168973Y0190454D01*
X0168017Y0190850D01*
X0079077Y0190850D01*
X0075600Y0194327D01*
X0075600Y0198948D01*
X0075606Y0198950D01*
X0076900Y0200244D01*
X0077600Y0201935D01*
X0077600Y0206565D01*
X0076900Y0208256D01*
X0075606Y0209550D01*
X0073915Y0210250D01*
X0072085Y0210250D01*
X0070394Y0209550D01*
X0069100Y0208256D01*
X0068400Y0206565D01*
X0068400Y0201935D01*
X0069100Y0200244D01*
X0070394Y0198950D01*
X0070400Y0198948D01*
X0070400Y0192733D01*
X0070796Y0191777D01*
X0071527Y0191046D01*
X0076527Y0186046D01*
X0077483Y0185650D01*
X0166423Y0185650D01*
X0166900Y0185173D01*
X0166900Y0182362D01*
X0164500Y0179962D01*
X0161612Y0182850D01*
X0157388Y0182850D01*
X0154888Y0180350D01*
X0086439Y0180350D01*
X0086375Y0180505D01*
X0085255Y0181625D01*
X0083792Y0182231D01*
X0082208Y0182231D01*
X0080745Y0181625D01*
X0079625Y0180505D01*
X0079019Y0179042D01*
X0079019Y0177458D01*
X0079625Y0175995D01*
X0080745Y0174875D01*
X0082208Y0174269D01*
X0083792Y0174269D01*
X0085255Y0174875D01*
X0085530Y0175150D01*
X0154888Y0175150D01*
X0157288Y0172750D01*
X0154400Y0169862D01*
X0154400Y0165638D01*
X0157388Y0162650D01*
X0161612Y0162650D01*
X0164500Y0165538D01*
X0166900Y0163138D01*
X0166900Y0160327D01*
X0164923Y0158350D01*
X0097146Y0158350D01*
X0096875Y0159005D01*
X0095755Y0160125D01*
X0094292Y0160731D01*
X0092708Y0160731D01*
X0091245Y0160125D01*
X0090125Y0159005D01*
X0089519Y0157542D01*
X0089519Y0155958D01*
X0090125Y0154495D01*
X0091245Y0153375D01*
X0092708Y0152769D01*
X0094292Y0152769D01*
X0095212Y0153150D01*
X0109478Y0153150D01*
X0109019Y0152042D01*
X0109019Y0150458D01*
X0109625Y0148995D01*
X0110745Y0147875D01*
X0112208Y0147269D01*
X0113792Y0147269D01*
X0115255Y0147875D01*
X0116375Y0148995D01*
X0116439Y0149150D01*
X0175017Y0149150D01*
X0175973Y0149546D01*
X0176704Y0150277D01*
X0181704Y0155277D01*
X0182100Y0156233D01*
X0182100Y0163138D01*
X0184500Y0165538D01*
X0186900Y0163138D01*
X0186900Y0151827D01*
X0179423Y0144350D01*
X0115483Y0144350D01*
X0114527Y0143954D01*
X0096796Y0126223D01*
X0096400Y0125267D01*
X0096400Y0019552D01*
X0096394Y0019550D01*
X0096400Y0020834D02*
X0021133Y0020834D01*
X0019535Y0022432D02*
X0096400Y0022432D01*
X0096400Y0024031D02*
X0007900Y0024031D01*
X0007900Y0025629D02*
X0096400Y0025629D01*
X0096400Y0027228D02*
X0007900Y0027228D01*
X0007900Y0028826D02*
X0096400Y0028826D01*
X0096400Y0030425D02*
X0007900Y0030425D01*
X0007900Y0032023D02*
X0096400Y0032023D01*
X0096400Y0033622D02*
X0007900Y0033622D01*
X0007900Y0035220D02*
X0096400Y0035220D01*
X0096400Y0036819D02*
X0007900Y0036819D01*
X0007900Y0038417D02*
X0096400Y0038417D01*
X0096400Y0040016D02*
X0007900Y0040016D01*
X0007900Y0041614D02*
X0096400Y0041614D01*
X0096400Y0043213D02*
X0007900Y0043213D01*
X0007900Y0044811D02*
X0096400Y0044811D01*
X0096400Y0046410D02*
X0007900Y0046410D01*
X0007900Y0048008D02*
X0096400Y0048008D01*
X0096400Y0049607D02*
X0007900Y0049607D01*
X0007900Y0051205D02*
X0096400Y0051205D01*
X0096400Y0052804D02*
X0007900Y0052804D01*
X0007900Y0054402D02*
X0096400Y0054402D01*
X0096400Y0056001D02*
X0007900Y0056001D01*
X0007900Y0057599D02*
X0096400Y0057599D01*
X0096400Y0059198D02*
X0007900Y0059198D01*
X0007900Y0060796D02*
X0096400Y0060796D01*
X0096400Y0062395D02*
X0007900Y0062395D01*
X0007900Y0063993D02*
X0096400Y0063993D01*
X0096400Y0065592D02*
X0007900Y0065592D01*
X0007900Y0067190D02*
X0096400Y0067190D01*
X0096400Y0068789D02*
X0007900Y0068789D01*
X0007900Y0070387D02*
X0096400Y0070387D01*
X0096400Y0071986D02*
X0007900Y0071986D01*
X0007900Y0073584D02*
X0096400Y0073584D01*
X0096400Y0075183D02*
X0007900Y0075183D01*
X0007900Y0076782D02*
X0096400Y0076782D01*
X0096400Y0078380D02*
X0007900Y0078380D01*
X0007900Y0079979D02*
X0096400Y0079979D01*
X0096400Y0081577D02*
X0007900Y0081577D01*
X0007900Y0083176D02*
X0096400Y0083176D01*
X0096400Y0084774D02*
X0007900Y0084774D01*
X0007900Y0086373D02*
X0096400Y0086373D01*
X0096400Y0087971D02*
X0007900Y0087971D01*
X0007900Y0089570D02*
X0096400Y0089570D01*
X0096400Y0091168D02*
X0047206Y0091168D01*
X0046719Y0090681D02*
X0048069Y0092031D01*
X0048800Y0093795D01*
X0048800Y0098705D01*
X0048069Y0100469D01*
X0046719Y0101819D01*
X0044955Y0102550D01*
X0043045Y0102550D01*
X0041281Y0101819D01*
X0039931Y0100469D01*
X0039200Y0098705D01*
X0039200Y0093795D01*
X0039931Y0092031D01*
X0041281Y0090681D01*
X0043045Y0089950D01*
X0044955Y0089950D01*
X0046719Y0090681D01*
X0048374Y0092767D02*
X0096400Y0092767D01*
X0096400Y0094365D02*
X0048800Y0094365D01*
X0048800Y0095964D02*
X0096400Y0095964D01*
X0096400Y0097562D02*
X0048800Y0097562D01*
X0048611Y0099161D02*
X0096400Y0099161D01*
X0096400Y0100759D02*
X0047779Y0100759D01*
X0045419Y0102358D02*
X0096400Y0102358D01*
X0096400Y0103956D02*
X0007900Y0103956D01*
X0007900Y0102358D02*
X0022581Y0102358D01*
X0023045Y0102550D02*
X0021281Y0101819D01*
X0019931Y0100469D01*
X0019200Y0098705D01*
X0019200Y0093795D01*
X0019931Y0092031D01*
X0021281Y0090681D01*
X0023045Y0089950D01*
X0024955Y0089950D01*
X0026719Y0090681D01*
X0028069Y0092031D01*
X0028800Y0093795D01*
X0028800Y0098705D01*
X0028069Y0100469D01*
X0026719Y0101819D01*
X0024955Y0102550D01*
X0023045Y0102550D01*
X0020221Y0100759D02*
X0007900Y0100759D01*
X0007900Y0099161D02*
X0019389Y0099161D01*
X0019200Y0097562D02*
X0007900Y0097562D01*
X0007900Y0095964D02*
X0019200Y0095964D01*
X0019200Y0094365D02*
X0007900Y0094365D01*
X0007900Y0092767D02*
X0019626Y0092767D01*
X0020794Y0091168D02*
X0007900Y0091168D01*
X0007900Y0105555D02*
X0096400Y0105555D01*
X0096400Y0107153D02*
X0007900Y0107153D01*
X0007900Y0108752D02*
X0096400Y0108752D01*
X0096400Y0110350D02*
X0007900Y0110350D01*
X0007900Y0111949D02*
X0096400Y0111949D01*
X0096400Y0113547D02*
X0007900Y0113547D01*
X0007900Y0115146D02*
X0096400Y0115146D01*
X0096400Y0116744D02*
X0007900Y0116744D01*
X0007900Y0118343D02*
X0096400Y0118343D01*
X0096400Y0119941D02*
X0007900Y0119941D01*
X0007900Y0121540D02*
X0096400Y0121540D01*
X0096400Y0123138D02*
X0007900Y0123138D01*
X0007900Y0124737D02*
X0096400Y0124737D01*
X0096908Y0126335D02*
X0007900Y0126335D01*
X0007900Y0127934D02*
X0098507Y0127934D01*
X0100105Y0129532D02*
X0007900Y0129532D01*
X0007900Y0131131D02*
X0101704Y0131131D01*
X0103302Y0132729D02*
X0007900Y0132729D01*
X0007900Y0134328D02*
X0104901Y0134328D01*
X0106499Y0135926D02*
X0007900Y0135926D01*
X0007900Y0137525D02*
X0108098Y0137525D01*
X0109697Y0139123D02*
X0007900Y0139123D01*
X0007900Y0140722D02*
X0111295Y0140722D01*
X0112894Y0142320D02*
X0007900Y0142320D01*
X0007900Y0143919D02*
X0114492Y0143919D01*
X0116000Y0141750D02*
X0180500Y0141750D01*
X0189500Y0150750D01*
X0189500Y0159250D01*
X0193457Y0159250D01*
X0189500Y0159250D02*
X0189500Y0167750D01*
X0193662Y0164700D02*
X0215100Y0164700D01*
X0215100Y0166298D02*
X0194600Y0166298D01*
X0194600Y0167897D02*
X0215100Y0167897D01*
X0215100Y0169495D02*
X0194600Y0169495D01*
X0193369Y0171094D02*
X0215100Y0171094D01*
X0215100Y0172692D02*
X0191770Y0172692D01*
X0193253Y0174291D02*
X0215100Y0174291D01*
X0215100Y0175889D02*
X0194600Y0175889D01*
X0194600Y0177488D02*
X0215100Y0177488D01*
X0215100Y0179086D02*
X0194600Y0179086D01*
X0194600Y0179862D02*
X0194600Y0177885D01*
X0189635Y0177885D01*
X0189635Y0182850D01*
X0191612Y0182850D01*
X0194600Y0179862D01*
X0193778Y0180685D02*
X0215100Y0180685D01*
X0215100Y0182283D02*
X0192179Y0182283D01*
X0189635Y0182283D02*
X0189365Y0182283D01*
X0189365Y0180685D02*
X0189635Y0180685D01*
X0189635Y0179086D02*
X0189365Y0179086D01*
X0189500Y0177750D02*
X0196000Y0177750D01*
X0203500Y0170250D01*
X0203500Y0159750D01*
X0201043Y0159750D01*
X0200543Y0159250D01*
X0200543Y0159250D01*
X0197168Y0159250D01*
X0197169Y0161671D01*
X0197305Y0162181D01*
X0197569Y0162638D01*
X0197942Y0163012D01*
X0198399Y0163276D01*
X0198909Y0163412D01*
X0200543Y0163412D01*
X0200543Y0159250D01*
X0197169Y0159250D01*
X0197169Y0156829D01*
X0197305Y0156319D01*
X0197569Y0155862D01*
X0197942Y0155488D01*
X0198399Y0155224D01*
X0198909Y0155088D01*
X0200543Y0155088D01*
X0200543Y0159250D01*
X0200543Y0159250D01*
X0200543Y0159250D01*
X0200543Y0163412D01*
X0202177Y0163412D01*
X0202687Y0163276D01*
X0203144Y0163012D01*
X0203518Y0162638D01*
X0203781Y0162181D01*
X0203918Y0161671D01*
X0203918Y0159250D01*
X0200543Y0159250D01*
X0200543Y0155088D01*
X0202177Y0155088D01*
X0202687Y0155224D01*
X0203144Y0155488D01*
X0203518Y0155862D01*
X0203781Y0156319D01*
X0203918Y0156829D01*
X0203918Y0159250D01*
X0200543Y0159250D01*
X0200543Y0159250D01*
X0200543Y0159904D02*
X0200543Y0159904D01*
X0200543Y0158306D02*
X0200543Y0158306D01*
X0200543Y0156707D02*
X0200543Y0156707D01*
X0200543Y0155109D02*
X0200543Y0155109D01*
X0198832Y0155109D02*
X0195678Y0155109D01*
X0196831Y0156707D02*
X0197201Y0156707D01*
X0197169Y0158306D02*
X0196831Y0158306D01*
X0196831Y0159904D02*
X0197169Y0159904D01*
X0197169Y0161503D02*
X0196831Y0161503D01*
X0195968Y0163101D02*
X0198097Y0163101D01*
X0200543Y0163101D02*
X0200543Y0163101D01*
X0200543Y0161503D02*
X0200543Y0161503D01*
X0202989Y0163101D02*
X0215100Y0163101D01*
X0215502Y0161503D02*
X0203918Y0161503D01*
X0203918Y0159904D02*
X0216830Y0159904D01*
X0218429Y0158306D02*
X0203918Y0158306D01*
X0203500Y0159750D02*
X0203500Y0150750D01*
X0186000Y0133250D01*
X0129000Y0133250D01*
X0125500Y0129750D01*
X0125500Y0054750D01*
X0121750Y0051000D01*
X0119000Y0048250D01*
X0119000Y0030750D01*
X0188000Y0030750D01*
X0219500Y0062250D01*
X0219500Y0077250D01*
X0219700Y0077450D02*
X0225000Y0077450D01*
X0225000Y0077683D01*
X0224865Y0078538D01*
X0224597Y0079361D01*
X0224204Y0080133D01*
X0223695Y0080833D01*
X0223083Y0081445D01*
X0222383Y0081954D01*
X0221801Y0082250D01*
X0222615Y0082587D01*
X0224163Y0084134D01*
X0225000Y0086156D01*
X0225000Y0088344D01*
X0224163Y0090365D01*
X0222615Y0091913D01*
X0221801Y0092250D01*
X0222615Y0092587D01*
X0224163Y0094134D01*
X0225000Y0096156D01*
X0225000Y0098344D01*
X0224163Y0100365D01*
X0222615Y0101913D01*
X0221801Y0102250D01*
X0222615Y0102587D01*
X0224163Y0104134D01*
X0225000Y0106156D01*
X0225000Y0108344D01*
X0224163Y0110365D01*
X0222615Y0111913D01*
X0220594Y0112750D01*
X0218406Y0112750D01*
X0216384Y0111913D01*
X0214837Y0110365D01*
X0214000Y0108344D01*
X0214000Y0106156D01*
X0214837Y0104134D01*
X0216384Y0102587D01*
X0217199Y0102250D01*
X0216384Y0101913D01*
X0214837Y0100365D01*
X0214624Y0099850D01*
X0170577Y0099850D01*
X0154831Y0115596D01*
X0154981Y0115958D01*
X0154981Y0117542D01*
X0154375Y0119005D01*
X0153255Y0120125D01*
X0151792Y0120731D01*
X0150208Y0120731D01*
X0148745Y0120125D01*
X0147625Y0119005D01*
X0147019Y0117542D01*
X0147019Y0115958D01*
X0147625Y0114495D01*
X0148745Y0113375D01*
X0150208Y0112769D01*
X0150304Y0112769D01*
X0168027Y0095046D01*
X0168983Y0094650D01*
X0214624Y0094650D01*
X0214837Y0094134D01*
X0216384Y0092587D01*
X0217199Y0092250D01*
X0216384Y0091913D01*
X0214837Y0090365D01*
X0214624Y0089850D01*
X0159577Y0089850D01*
X0143481Y0105946D01*
X0143481Y0107042D01*
X0142875Y0108505D01*
X0141755Y0109625D01*
X0140292Y0110231D01*
X0138708Y0110231D01*
X0137245Y0109625D01*
X0136125Y0108505D01*
X0135519Y0107042D01*
X0135519Y0105458D01*
X0136125Y0103995D01*
X0137245Y0102875D01*
X0138708Y0102269D01*
X0139804Y0102269D01*
X0157027Y0085046D01*
X0157983Y0084650D01*
X0214624Y0084650D01*
X0214837Y0084134D01*
X0216384Y0082587D01*
X0217199Y0082250D01*
X0216617Y0081954D01*
X0215917Y0081445D01*
X0215305Y0080833D01*
X0214796Y0080133D01*
X0214403Y0079361D01*
X0214135Y0078538D01*
X0214000Y0077683D01*
X0214000Y0077450D01*
X0219300Y0077450D01*
X0219300Y0077050D01*
X0214000Y0077050D01*
X0214000Y0076817D01*
X0214135Y0075962D01*
X0214403Y0075139D01*
X0214796Y0074367D01*
X0215305Y0073667D01*
X0215917Y0073055D01*
X0216617Y0072546D01*
X0217389Y0072153D01*
X0218212Y0071885D01*
X0219067Y0071750D01*
X0219300Y0071750D01*
X0219300Y0077050D01*
X0219700Y0077050D01*
X0219700Y0077450D01*
X0219700Y0077050D02*
X0225000Y0077050D01*
X0225000Y0076817D01*
X0224865Y0075962D01*
X0224597Y0075139D01*
X0224204Y0074367D01*
X0223695Y0073667D01*
X0223083Y0073055D01*
X0222383Y0072546D01*
X0221611Y0072153D01*
X0220788Y0071885D01*
X0219933Y0071750D01*
X0219700Y0071750D01*
X0219700Y0077050D01*
X0219700Y0076782D02*
X0219300Y0076782D01*
X0219300Y0075183D02*
X0219700Y0075183D01*
X0219700Y0073584D02*
X0219300Y0073584D01*
X0219300Y0071986D02*
X0219700Y0071986D01*
X0221097Y0071986D02*
X0225100Y0071986D01*
X0225100Y0073584D02*
X0223613Y0073584D01*
X0224611Y0075183D02*
X0225100Y0075183D01*
X0225100Y0076782D02*
X0224994Y0076782D01*
X0224890Y0078380D02*
X0225100Y0078380D01*
X0225100Y0079979D02*
X0224283Y0079979D01*
X0225100Y0081577D02*
X0222901Y0081577D01*
X0223204Y0083176D02*
X0225100Y0083176D01*
X0225100Y0084774D02*
X0224428Y0084774D01*
X0225000Y0086373D02*
X0225100Y0086373D01*
X0225100Y0087971D02*
X0225000Y0087971D01*
X0225100Y0089570D02*
X0224492Y0089570D01*
X0225100Y0091168D02*
X0223360Y0091168D01*
X0222795Y0092767D02*
X0225100Y0092767D01*
X0225100Y0094365D02*
X0224258Y0094365D01*
X0224920Y0095964D02*
X0225100Y0095964D01*
X0225100Y0097562D02*
X0225000Y0097562D01*
X0225100Y0099161D02*
X0224662Y0099161D01*
X0225100Y0100759D02*
X0223769Y0100759D01*
X0225100Y0102358D02*
X0222061Y0102358D01*
X0223984Y0103956D02*
X0225100Y0103956D01*
X0225100Y0105555D02*
X0224751Y0105555D01*
X0225000Y0107153D02*
X0225100Y0107153D01*
X0225100Y0108752D02*
X0224831Y0108752D01*
X0225100Y0110350D02*
X0224169Y0110350D01*
X0225100Y0111949D02*
X0222528Y0111949D01*
X0225100Y0113547D02*
X0156880Y0113547D01*
X0158478Y0111949D02*
X0216472Y0111949D01*
X0214831Y0110350D02*
X0160077Y0110350D01*
X0161675Y0108752D02*
X0214169Y0108752D01*
X0214000Y0107153D02*
X0163274Y0107153D01*
X0164872Y0105555D02*
X0214249Y0105555D01*
X0215016Y0103956D02*
X0166471Y0103956D01*
X0168069Y0102358D02*
X0216939Y0102358D01*
X0215231Y0100759D02*
X0169668Y0100759D01*
X0169500Y0097250D02*
X0150500Y0116250D01*
X0151000Y0116750D01*
X0153439Y0119941D02*
X0225100Y0119941D01*
X0225100Y0118343D02*
X0154649Y0118343D01*
X0154981Y0116744D02*
X0225100Y0116744D01*
X0225100Y0115146D02*
X0155281Y0115146D01*
X0151124Y0111949D02*
X0101600Y0111949D01*
X0101600Y0113547D02*
X0148573Y0113547D01*
X0147355Y0115146D02*
X0101600Y0115146D01*
X0101600Y0116744D02*
X0147019Y0116744D01*
X0147351Y0118343D02*
X0101600Y0118343D01*
X0101600Y0119941D02*
X0148561Y0119941D01*
X0152723Y0110350D02*
X0101600Y0110350D01*
X0101600Y0108752D02*
X0136372Y0108752D01*
X0135565Y0107153D02*
X0101600Y0107153D01*
X0101600Y0105555D02*
X0135519Y0105555D01*
X0136164Y0103956D02*
X0101600Y0103956D01*
X0101600Y0102358D02*
X0138494Y0102358D01*
X0141314Y0100759D02*
X0101600Y0100759D01*
X0101600Y0099161D02*
X0142912Y0099161D01*
X0144511Y0097562D02*
X0101600Y0097562D01*
X0101600Y0095964D02*
X0146109Y0095964D01*
X0147708Y0094365D02*
X0101600Y0094365D01*
X0101600Y0092767D02*
X0149306Y0092767D01*
X0150905Y0091168D02*
X0101600Y0091168D01*
X0101600Y0089570D02*
X0152503Y0089570D01*
X0154102Y0087971D02*
X0101600Y0087971D01*
X0101600Y0086373D02*
X0155700Y0086373D01*
X0157683Y0084774D02*
X0101600Y0084774D01*
X0101600Y0083176D02*
X0215796Y0083176D01*
X0216099Y0081577D02*
X0101600Y0081577D01*
X0101600Y0079979D02*
X0214717Y0079979D01*
X0214110Y0078380D02*
X0101600Y0078380D01*
X0101600Y0076782D02*
X0214006Y0076782D01*
X0214389Y0075183D02*
X0101600Y0075183D01*
X0101600Y0073584D02*
X0215387Y0073584D01*
X0217903Y0071986D02*
X0101600Y0071986D01*
X0101600Y0070387D02*
X0225100Y0070387D01*
X0225100Y0068789D02*
X0101600Y0068789D01*
X0101600Y0067190D02*
X0225100Y0067190D01*
X0225100Y0065592D02*
X0101600Y0065592D01*
X0101600Y0063993D02*
X0225100Y0063993D01*
X0225100Y0062395D02*
X0101600Y0062395D01*
X0101600Y0060796D02*
X0225100Y0060796D01*
X0225100Y0059198D02*
X0101600Y0059198D01*
X0101600Y0057599D02*
X0225100Y0057599D01*
X0225100Y0056001D02*
X0101600Y0056001D01*
X0101600Y0054402D02*
X0225100Y0054402D01*
X0225100Y0052804D02*
X0101600Y0052804D01*
X0101600Y0051205D02*
X0225100Y0051205D01*
X0225100Y0049607D02*
X0101600Y0049607D01*
X0101600Y0048008D02*
X0107670Y0048008D01*
X0108208Y0048231D02*
X0106745Y0047625D01*
X0105625Y0046505D01*
X0105019Y0045042D01*
X0105019Y0043458D01*
X0105625Y0041995D01*
X0106400Y0041220D01*
X0106400Y0019552D01*
X0106394Y0019550D01*
X0105100Y0018256D01*
X0104400Y0016565D01*
X0104400Y0011935D01*
X0105100Y0010244D01*
X0106394Y0008950D01*
X0108085Y0008250D01*
X0109915Y0008250D01*
X0111606Y0008950D01*
X0112900Y0010244D01*
X0113600Y0011935D01*
X0113600Y0016565D01*
X0112900Y0018256D01*
X0111606Y0019550D01*
X0111600Y0019552D01*
X0111600Y0041220D01*
X0112375Y0041995D01*
X0112981Y0043458D01*
X0112981Y0045042D01*
X0112375Y0046505D01*
X0111255Y0047625D01*
X0109792Y0048231D01*
X0108208Y0048231D01*
X0110330Y0048008D02*
X0225100Y0048008D01*
X0225100Y0046410D02*
X0112414Y0046410D01*
X0112981Y0044811D02*
X0225100Y0044811D01*
X0225100Y0043213D02*
X0222707Y0043213D01*
X0215293Y0043213D02*
X0112879Y0043213D01*
X0111994Y0041614D02*
X0212648Y0041614D01*
X0211049Y0040016D02*
X0111600Y0040016D01*
X0111600Y0038417D02*
X0210228Y0038417D01*
X0209566Y0036819D02*
X0111600Y0036819D01*
X0111600Y0035220D02*
X0209301Y0035220D01*
X0209301Y0033622D02*
X0111600Y0033622D01*
X0111600Y0032023D02*
X0209424Y0032023D01*
X0210086Y0030425D02*
X0111600Y0030425D01*
X0111600Y0028826D02*
X0210748Y0028826D01*
X0212306Y0027228D02*
X0111600Y0027228D01*
X0111600Y0025629D02*
X0214467Y0025629D01*
X0220068Y0020834D02*
X0111600Y0020834D01*
X0111600Y0022432D02*
X0221667Y0022432D01*
X0223265Y0024031D02*
X0111600Y0024031D01*
X0106400Y0024031D02*
X0101600Y0024031D01*
X0101600Y0025629D02*
X0106400Y0025629D01*
X0106400Y0027228D02*
X0101600Y0027228D01*
X0101600Y0028826D02*
X0106400Y0028826D01*
X0106400Y0030425D02*
X0101600Y0030425D01*
X0101600Y0032023D02*
X0106400Y0032023D01*
X0106400Y0033622D02*
X0101600Y0033622D01*
X0101600Y0035220D02*
X0106400Y0035220D01*
X0106400Y0036819D02*
X0101600Y0036819D01*
X0101600Y0038417D02*
X0106400Y0038417D01*
X0106400Y0040016D02*
X0101600Y0040016D01*
X0101600Y0041614D02*
X0106006Y0041614D01*
X0105121Y0043213D02*
X0101600Y0043213D01*
X0101600Y0044811D02*
X0105019Y0044811D01*
X0105586Y0046410D02*
X0101600Y0046410D01*
X0109000Y0044750D02*
X0109000Y0044250D01*
X0109000Y0014250D01*
X0113600Y0014440D02*
X0114400Y0014440D01*
X0114400Y0014287D02*
X0118963Y0014287D01*
X0118963Y0020250D01*
X0118638Y0020250D01*
X0117923Y0020137D01*
X0117234Y0019913D01*
X0116589Y0019584D01*
X0116003Y0019159D01*
X0115491Y0018647D01*
X0115066Y0018061D01*
X0114737Y0017416D01*
X0114513Y0016727D01*
X0114400Y0016012D01*
X0114400Y0014287D01*
X0114400Y0014213D02*
X0114400Y0012488D01*
X0114513Y0011773D01*
X0114737Y0011084D01*
X0115066Y0010439D01*
X0115491Y0009853D01*
X0116003Y0009341D01*
X0116589Y0008916D01*
X0117234Y0008587D01*
X0117923Y0008363D01*
X0118638Y0008250D01*
X0118963Y0008250D01*
X0118963Y0014213D01*
X0119037Y0014213D01*
X0119037Y0014287D01*
X0123600Y0014287D01*
X0123600Y0016012D01*
X0123487Y0016727D01*
X0123263Y0017416D01*
X0122934Y0018061D01*
X0122509Y0018647D01*
X0121997Y0019159D01*
X0121411Y0019584D01*
X0120766Y0019913D01*
X0120077Y0020137D01*
X0119362Y0020250D01*
X0119037Y0020250D01*
X0119037Y0014287D01*
X0118963Y0014287D01*
X0118963Y0014213D01*
X0114400Y0014213D01*
X0114400Y0012841D02*
X0113600Y0012841D01*
X0113313Y0011243D02*
X0114686Y0011243D01*
X0115701Y0009644D02*
X0112299Y0009644D01*
X0113600Y0016038D02*
X0114404Y0016038D01*
X0114850Y0017637D02*
X0113156Y0017637D01*
X0111920Y0019235D02*
X0116109Y0019235D01*
X0118963Y0019235D02*
X0119037Y0019235D01*
X0119037Y0017637D02*
X0118963Y0017637D01*
X0118963Y0016038D02*
X0119037Y0016038D01*
X0119037Y0014440D02*
X0118963Y0014440D01*
X0119000Y0014250D02*
X0119000Y0030750D01*
X0126589Y0019584D02*
X0126003Y0019159D01*
X0125491Y0018647D01*
X0125066Y0018061D01*
X0124737Y0017416D01*
X0124513Y0016727D01*
X0124400Y0016012D01*
X0124400Y0014287D01*
X0128963Y0014287D01*
X0128963Y0020250D01*
X0128638Y0020250D01*
X0127923Y0020137D01*
X0127234Y0019913D01*
X0126589Y0019584D01*
X0126109Y0019235D02*
X0121891Y0019235D01*
X0123150Y0017637D02*
X0124850Y0017637D01*
X0124404Y0016038D02*
X0123596Y0016038D01*
X0123600Y0014440D02*
X0124400Y0014440D01*
X0124400Y0014213D02*
X0124400Y0012488D01*
X0124513Y0011773D01*
X0124737Y0011084D01*
X0125066Y0010439D01*
X0125491Y0009853D01*
X0126003Y0009341D01*
X0126589Y0008916D01*
X0127234Y0008587D01*
X0127923Y0008363D01*
X0128638Y0008250D01*
X0128963Y0008250D01*
X0128963Y0014213D01*
X0129037Y0014213D01*
X0129037Y0014287D01*
X0133600Y0014287D01*
X0133600Y0016012D01*
X0133487Y0016727D01*
X0133263Y0017416D01*
X0132934Y0018061D01*
X0132509Y0018647D01*
X0131997Y0019159D01*
X0131411Y0019584D01*
X0130766Y0019913D01*
X0130077Y0020137D01*
X0129362Y0020250D01*
X0129037Y0020250D01*
X0129037Y0014287D01*
X0128963Y0014287D01*
X0128963Y0014213D01*
X0124400Y0014213D01*
X0123600Y0014213D02*
X0119037Y0014213D01*
X0119037Y0008250D01*
X0119362Y0008250D01*
X0120077Y0008363D01*
X0120766Y0008587D01*
X0121411Y0008916D01*
X0121997Y0009341D01*
X0122509Y0009853D01*
X0122934Y0010439D01*
X0123263Y0011084D01*
X0123487Y0011773D01*
X0123600Y0012488D01*
X0123600Y0014213D01*
X0123600Y0012841D02*
X0124400Y0012841D01*
X0124686Y0011243D02*
X0123314Y0011243D01*
X0122299Y0009644D02*
X0125701Y0009644D01*
X0128963Y0009644D02*
X0129037Y0009644D01*
X0129037Y0008250D02*
X0129362Y0008250D01*
X0130077Y0008363D01*
X0130766Y0008587D01*
X0131411Y0008916D01*
X0131997Y0009341D01*
X0132509Y0009853D01*
X0132934Y0010439D01*
X0133263Y0011084D01*
X0133487Y0011773D01*
X0133600Y0012488D01*
X0133600Y0014213D01*
X0129037Y0014213D01*
X0129037Y0008250D01*
X0128963Y0011243D02*
X0129037Y0011243D01*
X0129037Y0012841D02*
X0128963Y0012841D01*
X0129000Y0014250D02*
X0119000Y0014250D01*
X0118963Y0012841D02*
X0119037Y0012841D01*
X0119037Y0011243D02*
X0118963Y0011243D01*
X0118963Y0009644D02*
X0119037Y0009644D01*
X0128963Y0014440D02*
X0129037Y0014440D01*
X0129037Y0016038D02*
X0128963Y0016038D01*
X0128963Y0017637D02*
X0129037Y0017637D01*
X0129037Y0019235D02*
X0128963Y0019235D01*
X0131891Y0019235D02*
X0136080Y0019235D01*
X0136394Y0019550D02*
X0135100Y0018256D01*
X0134400Y0016565D01*
X0134400Y0011935D01*
X0135100Y0010244D01*
X0136394Y0008950D01*
X0138085Y0008250D01*
X0139915Y0008250D01*
X0141606Y0008950D01*
X0142900Y0010244D01*
X0143600Y0011935D01*
X0143600Y0016565D01*
X0142900Y0018256D01*
X0141606Y0019550D01*
X0139915Y0020250D01*
X0138085Y0020250D01*
X0136394Y0019550D01*
X0134844Y0017637D02*
X0133150Y0017637D01*
X0133596Y0016038D02*
X0134400Y0016038D01*
X0134400Y0014440D02*
X0133600Y0014440D01*
X0133600Y0012841D02*
X0134400Y0012841D01*
X0134687Y0011243D02*
X0133314Y0011243D01*
X0132299Y0009644D02*
X0135701Y0009644D01*
X0142299Y0009644D02*
X0215100Y0009644D01*
X0215100Y0011243D02*
X0143313Y0011243D01*
X0143600Y0012841D02*
X0215100Y0012841D01*
X0215100Y0014440D02*
X0143600Y0014440D01*
X0143600Y0016038D02*
X0215519Y0016038D01*
X0216871Y0017637D02*
X0143156Y0017637D01*
X0141920Y0019235D02*
X0218470Y0019235D01*
X0223533Y0025629D02*
X0224864Y0025629D01*
X0219500Y0087250D02*
X0158500Y0087250D01*
X0139500Y0106250D01*
X0142628Y0108752D02*
X0154321Y0108752D01*
X0155920Y0107153D02*
X0143435Y0107153D01*
X0143872Y0105555D02*
X0157518Y0105555D01*
X0159117Y0103956D02*
X0145471Y0103956D01*
X0147069Y0102358D02*
X0160715Y0102358D01*
X0162314Y0100759D02*
X0148668Y0100759D01*
X0150266Y0099161D02*
X0163912Y0099161D01*
X0165511Y0097562D02*
X0151865Y0097562D01*
X0153463Y0095964D02*
X0167109Y0095964D01*
X0169500Y0097250D02*
X0219500Y0097250D01*
X0214742Y0094365D02*
X0155062Y0094365D01*
X0156660Y0092767D02*
X0216205Y0092767D01*
X0215640Y0091168D02*
X0158259Y0091168D01*
X0113853Y0135926D02*
X0213750Y0135926D01*
X0212008Y0137525D02*
X0115452Y0137525D01*
X0117050Y0139123D02*
X0210625Y0139123D01*
X0209963Y0140722D02*
X0183149Y0140722D01*
X0184747Y0142320D02*
X0209301Y0142320D01*
X0209301Y0143919D02*
X0186346Y0143919D01*
X0187944Y0145518D02*
X0209301Y0145518D01*
X0209689Y0147116D02*
X0189543Y0147116D01*
X0190973Y0148546D02*
X0190973Y0148546D01*
X0191141Y0148715D02*
X0210351Y0148715D01*
X0211346Y0150313D02*
X0192100Y0150313D01*
X0192100Y0151912D02*
X0212945Y0151912D01*
X0216011Y0153510D02*
X0192100Y0153510D01*
X0186900Y0153510D02*
X0179937Y0153510D01*
X0178338Y0151912D02*
X0186900Y0151912D01*
X0185386Y0150313D02*
X0176740Y0150313D01*
X0174500Y0151750D02*
X0113500Y0151750D01*
X0113000Y0151250D01*
X0109079Y0150313D02*
X0007900Y0150313D01*
X0007900Y0148715D02*
X0109905Y0148715D01*
X0109019Y0151912D02*
X0007900Y0151912D01*
X0007900Y0153510D02*
X0091110Y0153510D01*
X0089871Y0155109D02*
X0007900Y0155109D01*
X0007900Y0156707D02*
X0089519Y0156707D01*
X0089835Y0158306D02*
X0007900Y0158306D01*
X0007900Y0159904D02*
X0091024Y0159904D01*
X0093500Y0156750D02*
X0094500Y0155750D01*
X0166000Y0155750D01*
X0169500Y0159250D01*
X0169500Y0167750D01*
X0165338Y0164700D02*
X0163662Y0164700D01*
X0162064Y0163101D02*
X0166900Y0163101D01*
X0166900Y0161503D02*
X0007900Y0161503D01*
X0007900Y0163101D02*
X0020371Y0163101D01*
X0020384Y0163087D02*
X0022406Y0162250D01*
X0024594Y0162250D01*
X0026615Y0163087D01*
X0028163Y0164634D01*
X0029000Y0166656D01*
X0029000Y0168844D01*
X0028163Y0170865D01*
X0026615Y0172413D01*
X0025801Y0172750D01*
X0026383Y0173046D01*
X0027083Y0173555D01*
X0027695Y0174167D01*
X0028204Y0174867D01*
X0028597Y0175639D01*
X0028865Y0176462D01*
X0029000Y0177317D01*
X0029000Y0177550D01*
X0023700Y0177550D01*
X0023700Y0177950D01*
X0029000Y0177950D01*
X0029000Y0178183D01*
X0028865Y0179038D01*
X0028597Y0179861D01*
X0028204Y0180633D01*
X0027695Y0181333D01*
X0027083Y0181945D01*
X0026383Y0182454D01*
X0025611Y0182847D01*
X0024788Y0183115D01*
X0023933Y0183250D01*
X0023700Y0183250D01*
X0023700Y0177950D01*
X0023300Y0177950D01*
X0023300Y0183250D01*
X0023067Y0183250D01*
X0022212Y0183115D01*
X0021389Y0182847D01*
X0020617Y0182454D01*
X0019917Y0181945D01*
X0019305Y0181333D01*
X0018796Y0180633D01*
X0018403Y0179861D01*
X0018135Y0179038D01*
X0018000Y0178183D01*
X0018000Y0177950D01*
X0023300Y0177950D01*
X0023300Y0177550D01*
X0018000Y0177550D01*
X0018000Y0177317D01*
X0018135Y0176462D01*
X0018403Y0175639D01*
X0018796Y0174867D01*
X0019305Y0174167D01*
X0019917Y0173555D01*
X0020617Y0173046D01*
X0021199Y0172750D01*
X0020384Y0172413D01*
X0018837Y0170865D01*
X0018000Y0168844D01*
X0018000Y0166656D01*
X0018837Y0164634D01*
X0020384Y0163087D01*
X0018810Y0164700D02*
X0007900Y0164700D01*
X0007900Y0166298D02*
X0018148Y0166298D01*
X0018000Y0167897D02*
X0007900Y0167897D01*
X0007900Y0169495D02*
X0018270Y0169495D01*
X0019066Y0171094D02*
X0007900Y0171094D01*
X0007900Y0172692D02*
X0021059Y0172692D01*
X0019215Y0174291D02*
X0007900Y0174291D01*
X0007900Y0175889D02*
X0018322Y0175889D01*
X0018000Y0177488D02*
X0007900Y0177488D01*
X0007900Y0179086D02*
X0018151Y0179086D01*
X0018834Y0180685D02*
X0007900Y0180685D01*
X0007900Y0182283D02*
X0020382Y0182283D01*
X0023300Y0182283D02*
X0023700Y0182283D01*
X0023700Y0180685D02*
X0023300Y0180685D01*
X0023300Y0179086D02*
X0023700Y0179086D01*
X0023500Y0177750D02*
X0017000Y0177750D01*
X0012500Y0173250D01*
X0012500Y0166750D01*
X0028000Y0151250D01*
X0028000Y0147250D01*
X0026629Y0163101D02*
X0156936Y0163101D01*
X0155338Y0164700D02*
X0028190Y0164700D01*
X0028852Y0166298D02*
X0154400Y0166298D01*
X0154400Y0167897D02*
X0029000Y0167897D01*
X0028730Y0169495D02*
X0154400Y0169495D01*
X0155631Y0171094D02*
X0027934Y0171094D01*
X0025941Y0172692D02*
X0157230Y0172692D01*
X0155747Y0174291D02*
X0083845Y0174291D01*
X0082155Y0174291D02*
X0027785Y0174291D01*
X0028678Y0175889D02*
X0079731Y0175889D01*
X0079019Y0177488D02*
X0029000Y0177488D01*
X0028849Y0179086D02*
X0079037Y0179086D01*
X0079805Y0180685D02*
X0028166Y0180685D01*
X0026618Y0182283D02*
X0156821Y0182283D01*
X0155222Y0180685D02*
X0086195Y0180685D01*
X0083500Y0177750D02*
X0083000Y0178250D01*
X0083500Y0177750D02*
X0159500Y0177750D01*
X0163778Y0180685D02*
X0165222Y0180685D01*
X0166821Y0182283D02*
X0162179Y0182283D01*
X0166900Y0183882D02*
X0007900Y0183882D01*
X0007900Y0185480D02*
X0166593Y0185480D01*
X0167500Y0188250D02*
X0169500Y0186250D01*
X0169500Y0177750D01*
X0173778Y0180685D02*
X0175222Y0180685D01*
X0176821Y0182283D02*
X0172179Y0182283D01*
X0172100Y0183882D02*
X0176900Y0183882D01*
X0176900Y0185480D02*
X0172100Y0185480D01*
X0171971Y0187079D02*
X0176900Y0187079D01*
X0176900Y0188677D02*
X0170750Y0188677D01*
X0169151Y0190276D02*
X0176900Y0190276D01*
X0179500Y0193750D02*
X0123000Y0193750D01*
X0123000Y0204250D01*
X0127600Y0204662D02*
X0134400Y0204662D01*
X0134400Y0203064D02*
X0127600Y0203064D01*
X0127405Y0201465D02*
X0134595Y0201465D01*
X0134400Y0201935D02*
X0135100Y0200244D01*
X0136394Y0198950D01*
X0138085Y0198250D01*
X0139915Y0198250D01*
X0141606Y0198950D01*
X0142900Y0200244D01*
X0143600Y0201935D01*
X0143600Y0206565D01*
X0142900Y0208256D01*
X0141606Y0209550D01*
X0139915Y0210250D01*
X0138085Y0210250D01*
X0136394Y0209550D01*
X0135100Y0208256D01*
X0134400Y0206565D01*
X0134400Y0201935D01*
X0135478Y0199867D02*
X0126522Y0199867D01*
X0125600Y0198268D02*
X0138041Y0198268D01*
X0139959Y0198268D02*
X0148041Y0198268D01*
X0148085Y0198250D02*
X0149915Y0198250D01*
X0151606Y0198950D01*
X0152900Y0200244D01*
X0153600Y0201935D01*
X0153600Y0206565D01*
X0152900Y0208256D01*
X0151606Y0209550D01*
X0149915Y0210250D01*
X0148085Y0210250D01*
X0146394Y0209550D01*
X0145100Y0208256D01*
X0144400Y0206565D01*
X0144400Y0201935D01*
X0145100Y0200244D01*
X0146394Y0198950D01*
X0148085Y0198250D01*
X0149959Y0198268D02*
X0158041Y0198268D01*
X0158085Y0198250D02*
X0159915Y0198250D01*
X0161606Y0198950D01*
X0162900Y0200244D01*
X0163600Y0201935D01*
X0163600Y0206565D01*
X0162900Y0208256D01*
X0161606Y0209550D01*
X0159915Y0210250D01*
X0158085Y0210250D01*
X0156394Y0209550D01*
X0155100Y0208256D01*
X0154400Y0206565D01*
X0154400Y0201935D01*
X0155100Y0200244D01*
X0156394Y0198950D01*
X0158085Y0198250D01*
X0159959Y0198268D02*
X0168041Y0198268D01*
X0168085Y0198250D02*
X0169915Y0198250D01*
X0171606Y0198950D01*
X0172900Y0200244D01*
X0173600Y0201935D01*
X0173600Y0206565D01*
X0172900Y0208256D01*
X0171606Y0209550D01*
X0169915Y0210250D01*
X0168085Y0210250D01*
X0166394Y0209550D01*
X0165100Y0208256D01*
X0164400Y0206565D01*
X0164400Y0201935D01*
X0165100Y0200244D01*
X0166394Y0198950D01*
X0168085Y0198250D01*
X0169959Y0198268D02*
X0178041Y0198268D01*
X0178085Y0198250D02*
X0179915Y0198250D01*
X0181606Y0198950D01*
X0182900Y0200244D01*
X0183600Y0201935D01*
X0183600Y0206565D01*
X0182900Y0208256D01*
X0181606Y0209550D01*
X0179915Y0210250D01*
X0178085Y0210250D01*
X0176394Y0209550D01*
X0175100Y0208256D01*
X0174400Y0206565D01*
X0174400Y0201935D01*
X0175100Y0200244D01*
X0176394Y0198950D01*
X0178085Y0198250D01*
X0179959Y0198268D02*
X0188041Y0198268D01*
X0188085Y0198250D02*
X0189915Y0198250D01*
X0191606Y0198950D01*
X0192900Y0200244D01*
X0193600Y0201935D01*
X0193600Y0206565D01*
X0192900Y0208256D01*
X0191606Y0209550D01*
X0189915Y0210250D01*
X0188085Y0210250D01*
X0186394Y0209550D01*
X0185100Y0208256D01*
X0184400Y0206565D01*
X0184400Y0201935D01*
X0185100Y0200244D01*
X0186394Y0198950D01*
X0188085Y0198250D01*
X0189959Y0198268D02*
X0198041Y0198268D01*
X0198085Y0198250D02*
X0199915Y0198250D01*
X0201606Y0198950D01*
X0202900Y0200244D01*
X0203600Y0201935D01*
X0203600Y0206565D01*
X0202900Y0208256D01*
X0201606Y0209550D01*
X0199915Y0210250D01*
X0198085Y0210250D01*
X0196394Y0209550D01*
X0195100Y0208256D01*
X0194400Y0206565D01*
X0194400Y0201935D01*
X0195100Y0200244D01*
X0196394Y0198950D01*
X0198085Y0198250D01*
X0199959Y0198268D02*
X0208041Y0198268D01*
X0208085Y0198250D02*
X0209915Y0198250D01*
X0211606Y0198950D01*
X0212900Y0200244D01*
X0213600Y0201935D01*
X0213600Y0206565D01*
X0212900Y0208256D01*
X0211606Y0209550D01*
X0209915Y0210250D01*
X0208085Y0210250D01*
X0206394Y0209550D01*
X0205100Y0208256D01*
X0204400Y0206565D01*
X0204400Y0201935D01*
X0205100Y0200244D01*
X0206394Y0198950D01*
X0208085Y0198250D01*
X0209959Y0198268D02*
X0215100Y0198268D01*
X0215100Y0196670D02*
X0125600Y0196670D01*
X0120400Y0196670D02*
X0075600Y0196670D01*
X0075600Y0198268D02*
X0082041Y0198268D01*
X0082085Y0198250D02*
X0083915Y0198250D01*
X0085606Y0198950D01*
X0086900Y0200244D01*
X0087600Y0201935D01*
X0087600Y0206565D01*
X0086900Y0208256D01*
X0085606Y0209550D01*
X0083915Y0210250D01*
X0082085Y0210250D01*
X0080394Y0209550D01*
X0079100Y0208256D01*
X0078400Y0206565D01*
X0078400Y0201935D01*
X0079100Y0200244D01*
X0080394Y0198950D01*
X0082085Y0198250D01*
X0083959Y0198268D02*
X0092041Y0198268D01*
X0092085Y0198250D02*
X0093915Y0198250D01*
X0095606Y0198950D01*
X0096900Y0200244D01*
X0097600Y0201935D01*
X0097600Y0206565D01*
X0096900Y0208256D01*
X0095606Y0209550D01*
X0093915Y0210250D01*
X0092085Y0210250D01*
X0090394Y0209550D01*
X0089100Y0208256D01*
X0088400Y0206565D01*
X0088400Y0201935D01*
X0089100Y0200244D01*
X0090394Y0198950D01*
X0092085Y0198250D01*
X0093959Y0198268D02*
X0102041Y0198268D01*
X0102085Y0198250D02*
X0103915Y0198250D01*
X0105606Y0198950D01*
X0106900Y0200244D01*
X0107600Y0201935D01*
X0107600Y0206565D01*
X0106900Y0208256D01*
X0105606Y0209550D01*
X0103915Y0210250D01*
X0102085Y0210250D01*
X0100394Y0209550D01*
X0099100Y0208256D01*
X0098400Y0206565D01*
X0098400Y0201935D01*
X0099100Y0200244D01*
X0100394Y0198950D01*
X0102085Y0198250D01*
X0103959Y0198268D02*
X0112041Y0198268D01*
X0112085Y0198250D02*
X0113915Y0198250D01*
X0115606Y0198950D01*
X0116900Y0200244D01*
X0117600Y0201935D01*
X0117600Y0206565D01*
X0116900Y0208256D01*
X0115606Y0209550D01*
X0113915Y0210250D01*
X0112085Y0210250D01*
X0110394Y0209550D01*
X0109100Y0208256D01*
X0108400Y0206565D01*
X0108400Y0201935D01*
X0109100Y0200244D01*
X0110394Y0198950D01*
X0112085Y0198250D01*
X0113959Y0198268D02*
X0120400Y0198268D01*
X0119478Y0199867D02*
X0116522Y0199867D01*
X0117405Y0201465D02*
X0118595Y0201465D01*
X0118400Y0203064D02*
X0117600Y0203064D01*
X0117600Y0204662D02*
X0118400Y0204662D01*
X0118400Y0206261D02*
X0117600Y0206261D01*
X0117064Y0207859D02*
X0118936Y0207859D01*
X0120303Y0209458D02*
X0115697Y0209458D01*
X0110303Y0209458D02*
X0105697Y0209458D01*
X0107064Y0207859D02*
X0108936Y0207859D01*
X0108400Y0206261D02*
X0107600Y0206261D01*
X0107600Y0204662D02*
X0108400Y0204662D01*
X0108400Y0203064D02*
X0107600Y0203064D01*
X0107405Y0201465D02*
X0108595Y0201465D01*
X0109478Y0199867D02*
X0106522Y0199867D01*
X0099478Y0199867D02*
X0096522Y0199867D01*
X0097405Y0201465D02*
X0098595Y0201465D01*
X0098400Y0203064D02*
X0097600Y0203064D01*
X0097600Y0204662D02*
X0098400Y0204662D01*
X0098400Y0206261D02*
X0097600Y0206261D01*
X0097064Y0207859D02*
X0098936Y0207859D01*
X0100303Y0209458D02*
X0095697Y0209458D01*
X0090303Y0209458D02*
X0085697Y0209458D01*
X0087064Y0207859D02*
X0088936Y0207859D01*
X0088400Y0206261D02*
X0087600Y0206261D01*
X0087600Y0204662D02*
X0088400Y0204662D01*
X0088400Y0203064D02*
X0087600Y0203064D01*
X0087405Y0201465D02*
X0088595Y0201465D01*
X0089478Y0199867D02*
X0086522Y0199867D01*
X0079478Y0199867D02*
X0076522Y0199867D01*
X0077405Y0201465D02*
X0078595Y0201465D01*
X0078400Y0203064D02*
X0077600Y0203064D01*
X0077600Y0204662D02*
X0078400Y0204662D01*
X0078400Y0206261D02*
X0077600Y0206261D01*
X0077064Y0207859D02*
X0078936Y0207859D01*
X0080303Y0209458D02*
X0075697Y0209458D01*
X0070303Y0209458D02*
X0065697Y0209458D01*
X0065606Y0209550D02*
X0063915Y0210250D01*
X0062085Y0210250D01*
X0060394Y0209550D01*
X0059100Y0208256D01*
X0058400Y0206565D01*
X0058400Y0201935D01*
X0059100Y0200244D01*
X0060394Y0198950D01*
X0062085Y0198250D01*
X0063915Y0198250D01*
X0065606Y0198950D01*
X0066900Y0200244D01*
X0067600Y0201935D01*
X0067600Y0206565D01*
X0066900Y0208256D01*
X0065606Y0209550D01*
X0067064Y0207859D02*
X0068936Y0207859D01*
X0068400Y0206261D02*
X0067600Y0206261D01*
X0067600Y0204662D02*
X0068400Y0204662D01*
X0068400Y0203064D02*
X0067600Y0203064D01*
X0067405Y0201465D02*
X0068595Y0201465D01*
X0069478Y0199867D02*
X0066522Y0199867D01*
X0063959Y0198268D02*
X0070400Y0198268D01*
X0070400Y0196670D02*
X0025137Y0196670D01*
X0026735Y0198268D02*
X0032041Y0198268D01*
X0033959Y0198268D02*
X0042041Y0198268D01*
X0042085Y0198250D02*
X0043915Y0198250D01*
X0045606Y0198950D01*
X0046900Y0200244D01*
X0047600Y0201935D01*
X0047600Y0206565D01*
X0046900Y0208256D01*
X0045606Y0209550D01*
X0043915Y0210250D01*
X0042085Y0210250D01*
X0040394Y0209550D01*
X0039100Y0208256D01*
X0038400Y0206565D01*
X0038400Y0201935D01*
X0039100Y0200244D01*
X0040394Y0198950D01*
X0042085Y0198250D01*
X0043959Y0198268D02*
X0052041Y0198268D01*
X0052085Y0198250D02*
X0053915Y0198250D01*
X0055606Y0198950D01*
X0056900Y0200244D01*
X0057600Y0201935D01*
X0057600Y0206565D01*
X0056900Y0208256D01*
X0055606Y0209550D01*
X0053915Y0210250D01*
X0052085Y0210250D01*
X0050394Y0209550D01*
X0049100Y0208256D01*
X0048400Y0206565D01*
X0048400Y0201935D01*
X0049100Y0200244D01*
X0050394Y0198950D01*
X0052085Y0198250D01*
X0053959Y0198268D02*
X0062041Y0198268D01*
X0059478Y0199867D02*
X0056522Y0199867D01*
X0057405Y0201465D02*
X0058595Y0201465D01*
X0058400Y0203064D02*
X0057600Y0203064D01*
X0057600Y0204662D02*
X0058400Y0204662D01*
X0058400Y0206261D02*
X0057600Y0206261D01*
X0057064Y0207859D02*
X0058936Y0207859D01*
X0060303Y0209458D02*
X0055697Y0209458D01*
X0050303Y0209458D02*
X0045697Y0209458D01*
X0047064Y0207859D02*
X0048936Y0207859D01*
X0048400Y0206261D02*
X0047600Y0206261D01*
X0047600Y0204662D02*
X0048400Y0204662D01*
X0048400Y0203064D02*
X0047600Y0203064D01*
X0047405Y0201465D02*
X0048595Y0201465D01*
X0049478Y0199867D02*
X0046522Y0199867D01*
X0039478Y0199867D02*
X0036522Y0199867D01*
X0037405Y0201465D02*
X0038595Y0201465D01*
X0038400Y0203064D02*
X0037600Y0203064D01*
X0037600Y0204662D02*
X0038400Y0204662D01*
X0038400Y0206261D02*
X0037600Y0206261D01*
X0037064Y0207859D02*
X0038936Y0207859D01*
X0040303Y0209458D02*
X0035697Y0209458D01*
X0030303Y0209458D02*
X0027341Y0209458D01*
X0028003Y0207859D02*
X0028936Y0207859D01*
X0028595Y0201465D02*
X0028345Y0201465D01*
X0027683Y0199867D02*
X0029478Y0199867D01*
X0022186Y0195071D02*
X0070400Y0195071D01*
X0070400Y0193473D02*
X0007900Y0193473D01*
X0007900Y0195071D02*
X0015814Y0195071D01*
X0012863Y0196670D02*
X0007900Y0196670D01*
X0007900Y0198268D02*
X0011265Y0198268D01*
X0010317Y0199867D02*
X0007900Y0199867D01*
X0007900Y0201465D02*
X0009655Y0201465D01*
X0009301Y0203064D02*
X0007900Y0203064D01*
X0007900Y0204662D02*
X0009301Y0204662D01*
X0009335Y0206261D02*
X0007900Y0206261D01*
X0007900Y0207859D02*
X0009997Y0207859D01*
X0010659Y0209458D02*
X0007900Y0209458D01*
X0007900Y0191874D02*
X0070756Y0191874D01*
X0072297Y0190276D02*
X0007900Y0190276D01*
X0007900Y0188677D02*
X0073896Y0188677D01*
X0075494Y0187079D02*
X0007900Y0187079D01*
X0007900Y0147116D02*
X0182189Y0147116D01*
X0180591Y0145518D02*
X0007900Y0145518D01*
X0025419Y0102358D02*
X0032648Y0102358D01*
X0032876Y0102432D02*
X0032157Y0102198D01*
X0031484Y0101855D01*
X0030873Y0101411D01*
X0030339Y0100877D01*
X0029895Y0100266D01*
X0029552Y0099593D01*
X0029318Y0098874D01*
X0029200Y0098128D01*
X0029200Y0096450D01*
X0033800Y0096450D01*
X0033800Y0102550D01*
X0033622Y0102550D01*
X0032876Y0102432D01*
X0033800Y0102358D02*
X0034200Y0102358D01*
X0034200Y0102550D02*
X0034200Y0096450D01*
X0033800Y0096450D01*
X0033800Y0096050D01*
X0029200Y0096050D01*
X0029200Y0094372D01*
X0029318Y0093626D01*
X0029552Y0092907D01*
X0029895Y0092234D01*
X0030339Y0091623D01*
X0030873Y0091089D01*
X0031484Y0090645D01*
X0032157Y0090302D01*
X0032876Y0090068D01*
X0033622Y0089950D01*
X0033800Y0089950D01*
X0033800Y0096050D01*
X0034200Y0096050D01*
X0034200Y0096450D01*
X0038800Y0096450D01*
X0038800Y0098128D01*
X0038682Y0098874D01*
X0038448Y0099593D01*
X0038105Y0100266D01*
X0037661Y0100877D01*
X0037127Y0101411D01*
X0036516Y0101855D01*
X0035843Y0102198D01*
X0035124Y0102432D01*
X0034378Y0102550D01*
X0034200Y0102550D01*
X0035352Y0102358D02*
X0042581Y0102358D01*
X0040221Y0100759D02*
X0037747Y0100759D01*
X0038589Y0099161D02*
X0039389Y0099161D01*
X0039200Y0097562D02*
X0038800Y0097562D01*
X0038800Y0096050D02*
X0034200Y0096050D01*
X0034200Y0089950D01*
X0034378Y0089950D01*
X0035124Y0090068D01*
X0035843Y0090302D01*
X0036516Y0090645D01*
X0037127Y0091089D01*
X0037661Y0091623D01*
X0038105Y0092234D01*
X0038448Y0092907D01*
X0038682Y0093626D01*
X0038800Y0094372D01*
X0038800Y0096050D01*
X0038800Y0095964D02*
X0039200Y0095964D01*
X0039200Y0094365D02*
X0038799Y0094365D01*
X0038377Y0092767D02*
X0039626Y0092767D01*
X0040794Y0091168D02*
X0037206Y0091168D01*
X0034200Y0091168D02*
X0033800Y0091168D01*
X0033800Y0092767D02*
X0034200Y0092767D01*
X0034200Y0094365D02*
X0033800Y0094365D01*
X0033800Y0095964D02*
X0034200Y0095964D01*
X0034200Y0097562D02*
X0033800Y0097562D01*
X0033800Y0099161D02*
X0034200Y0099161D01*
X0034200Y0100759D02*
X0033800Y0100759D01*
X0030253Y0100759D02*
X0027779Y0100759D01*
X0028611Y0099161D02*
X0029411Y0099161D01*
X0029200Y0097562D02*
X0028800Y0097562D01*
X0028800Y0095964D02*
X0029200Y0095964D01*
X0029201Y0094365D02*
X0028800Y0094365D01*
X0028374Y0092767D02*
X0029623Y0092767D01*
X0030794Y0091168D02*
X0027206Y0091168D01*
X0099000Y0124750D02*
X0116000Y0141750D01*
X0116095Y0148715D02*
X0183788Y0148715D01*
X0181536Y0155109D02*
X0186900Y0155109D01*
X0186900Y0156707D02*
X0182100Y0156707D01*
X0182100Y0158306D02*
X0186900Y0158306D01*
X0186900Y0159904D02*
X0182100Y0159904D01*
X0182100Y0161503D02*
X0186900Y0161503D01*
X0186900Y0163101D02*
X0182100Y0163101D01*
X0183662Y0164700D02*
X0185338Y0164700D01*
X0179500Y0167750D02*
X0179500Y0156750D01*
X0174500Y0151750D01*
X0166477Y0159904D02*
X0095976Y0159904D01*
X0112255Y0134328D02*
X0225100Y0134328D01*
X0225100Y0135926D02*
X0224250Y0135926D01*
X0225100Y0132729D02*
X0110656Y0132729D01*
X0109058Y0131131D02*
X0225100Y0131131D01*
X0225100Y0129532D02*
X0107459Y0129532D01*
X0105861Y0127934D02*
X0225100Y0127934D01*
X0225100Y0126335D02*
X0104262Y0126335D01*
X0102664Y0124737D02*
X0225100Y0124737D01*
X0225100Y0123138D02*
X0101600Y0123138D01*
X0101600Y0121540D02*
X0225100Y0121540D01*
X0223225Y0153510D02*
X0221989Y0153510D01*
X0221626Y0155109D02*
X0202255Y0155109D01*
X0203886Y0156707D02*
X0220027Y0156707D01*
X0215100Y0183882D02*
X0182100Y0183882D01*
X0182100Y0185480D02*
X0215100Y0185480D01*
X0215100Y0187079D02*
X0182100Y0187079D01*
X0182100Y0188677D02*
X0215100Y0188677D01*
X0215100Y0190276D02*
X0182100Y0190276D01*
X0182100Y0191874D02*
X0215100Y0191874D01*
X0215100Y0193473D02*
X0182100Y0193473D01*
X0181767Y0195071D02*
X0215100Y0195071D01*
X0215100Y0199867D02*
X0212522Y0199867D01*
X0213405Y0201465D02*
X0215100Y0201465D01*
X0215100Y0203064D02*
X0213600Y0203064D01*
X0213600Y0204662D02*
X0215100Y0204662D01*
X0215100Y0206261D02*
X0213600Y0206261D01*
X0213875Y0207859D02*
X0213064Y0207859D01*
X0212277Y0209458D02*
X0211697Y0209458D01*
X0206303Y0209458D02*
X0201697Y0209458D01*
X0203064Y0207859D02*
X0204936Y0207859D01*
X0204400Y0206261D02*
X0203600Y0206261D01*
X0203600Y0204662D02*
X0204400Y0204662D01*
X0204400Y0203064D02*
X0203600Y0203064D01*
X0203405Y0201465D02*
X0204595Y0201465D01*
X0205478Y0199867D02*
X0202522Y0199867D01*
X0195478Y0199867D02*
X0192522Y0199867D01*
X0193405Y0201465D02*
X0194595Y0201465D01*
X0194400Y0203064D02*
X0193600Y0203064D01*
X0193600Y0204662D02*
X0194400Y0204662D01*
X0194400Y0206261D02*
X0193600Y0206261D01*
X0193064Y0207859D02*
X0194936Y0207859D01*
X0196303Y0209458D02*
X0191697Y0209458D01*
X0186303Y0209458D02*
X0181697Y0209458D01*
X0183064Y0207859D02*
X0184936Y0207859D01*
X0184400Y0206261D02*
X0183600Y0206261D01*
X0183600Y0204662D02*
X0184400Y0204662D01*
X0184400Y0203064D02*
X0183600Y0203064D01*
X0183405Y0201465D02*
X0184595Y0201465D01*
X0185478Y0199867D02*
X0182522Y0199867D01*
X0179500Y0193750D02*
X0179500Y0177750D01*
X0183778Y0180685D02*
X0185222Y0180685D01*
X0186821Y0182283D02*
X0182179Y0182283D01*
X0167500Y0188250D02*
X0078000Y0188250D01*
X0073000Y0193250D01*
X0073000Y0204250D01*
X0075600Y0195071D02*
X0120400Y0195071D01*
X0120400Y0193473D02*
X0076454Y0193473D01*
X0078053Y0191874D02*
X0121199Y0191874D01*
X0127600Y0206261D02*
X0134400Y0206261D01*
X0134936Y0207859D02*
X0127064Y0207859D01*
X0125697Y0209458D02*
X0136303Y0209458D01*
X0141697Y0209458D02*
X0146303Y0209458D01*
X0144936Y0207859D02*
X0143064Y0207859D01*
X0143600Y0206261D02*
X0144400Y0206261D01*
X0144400Y0204662D02*
X0143600Y0204662D01*
X0143600Y0203064D02*
X0144400Y0203064D01*
X0144595Y0201465D02*
X0143405Y0201465D01*
X0142522Y0199867D02*
X0145478Y0199867D01*
X0152522Y0199867D02*
X0155478Y0199867D01*
X0154595Y0201465D02*
X0153405Y0201465D01*
X0153600Y0203064D02*
X0154400Y0203064D01*
X0154400Y0204662D02*
X0153600Y0204662D01*
X0153600Y0206261D02*
X0154400Y0206261D01*
X0154936Y0207859D02*
X0153064Y0207859D01*
X0151697Y0209458D02*
X0156303Y0209458D01*
X0161697Y0209458D02*
X0166303Y0209458D01*
X0164936Y0207859D02*
X0163064Y0207859D01*
X0163600Y0206261D02*
X0164400Y0206261D01*
X0164400Y0204662D02*
X0163600Y0204662D01*
X0163600Y0203064D02*
X0164400Y0203064D01*
X0164595Y0201465D02*
X0163405Y0201465D01*
X0162522Y0199867D02*
X0165478Y0199867D01*
X0172522Y0199867D02*
X0175478Y0199867D01*
X0174595Y0201465D02*
X0173405Y0201465D01*
X0173600Y0203064D02*
X0174400Y0203064D01*
X0174400Y0204662D02*
X0173600Y0204662D01*
X0173600Y0206261D02*
X0174400Y0206261D01*
X0174936Y0207859D02*
X0173064Y0207859D01*
X0171697Y0209458D02*
X0176303Y0209458D01*
X0099000Y0124750D02*
X0099000Y0014250D01*
X0094687Y0011243D02*
X0093313Y0011243D01*
X0093600Y0012841D02*
X0094400Y0012841D01*
X0094400Y0014440D02*
X0093600Y0014440D01*
X0093600Y0016038D02*
X0094400Y0016038D01*
X0094844Y0017637D02*
X0093156Y0017637D01*
X0092299Y0009644D02*
X0095701Y0009644D01*
X0102299Y0009644D02*
X0105701Y0009644D01*
X0104687Y0011243D02*
X0103313Y0011243D01*
X0103600Y0012841D02*
X0104400Y0012841D01*
X0104400Y0014440D02*
X0103600Y0014440D01*
X0103600Y0016038D02*
X0104400Y0016038D01*
X0104844Y0017637D02*
X0103156Y0017637D01*
X0101920Y0019235D02*
X0106080Y0019235D01*
X0106400Y0020834D02*
X0101600Y0020834D01*
X0101600Y0022432D02*
X0106400Y0022432D01*
X0008465Y0022432D02*
X0007900Y0022432D01*
D16*
X0109000Y0044250D03*
X0121750Y0051000D03*
X0139500Y0106250D03*
X0151000Y0116750D03*
X0113000Y0151250D03*
X0093500Y0156750D03*
X0083000Y0178250D03*
X0028000Y0147250D03*
M02*
