G75*
%MOIN*%
%OFA0B0*%
%FSLAX25Y25*%
%IPPOS*%
%LPD*%
%AMOC8*
5,1,8,0,0,1.08239X$1,22.5*
%
%ADD10C,0.12998*%
%ADD11C,0.06000*%
%ADD12OC8,0.07000*%
%ADD13C,0.06400*%
%ADD14C,0.07800*%
%ADD15C,0.00450*%
D10*
X0014000Y0014250D03*
X0019000Y0204250D03*
X0219000Y0144250D03*
X0219000Y0034250D03*
D11*
X0139000Y0015650D02*
X0139000Y0012850D01*
X0129000Y0012850D02*
X0129000Y0015650D01*
X0119000Y0015650D02*
X0119000Y0012850D01*
X0109000Y0012850D02*
X0109000Y0015650D01*
X0099000Y0015650D02*
X0099000Y0012850D01*
X0089000Y0012850D02*
X0089000Y0015650D01*
X0079000Y0015650D02*
X0079000Y0012850D01*
X0069000Y0012850D02*
X0069000Y0015650D01*
X0073000Y0202850D02*
X0073000Y0205650D01*
X0063000Y0205650D02*
X0063000Y0202850D01*
X0053000Y0202850D02*
X0053000Y0205650D01*
X0043000Y0205650D02*
X0043000Y0202850D01*
X0033000Y0202850D02*
X0033000Y0205650D01*
X0083000Y0205650D02*
X0083000Y0202850D01*
X0093000Y0202850D02*
X0093000Y0205650D01*
X0103000Y0205650D02*
X0103000Y0202850D01*
X0113000Y0202850D02*
X0113000Y0205650D01*
X0123000Y0205650D02*
X0123000Y0202850D01*
X0139000Y0202850D02*
X0139000Y0205650D01*
X0149000Y0205650D02*
X0149000Y0202850D01*
X0159000Y0202850D02*
X0159000Y0205650D01*
X0169000Y0205650D02*
X0169000Y0202850D01*
X0179000Y0202850D02*
X0179000Y0205650D01*
X0189000Y0205650D02*
X0189000Y0202850D01*
X0199000Y0202850D02*
X0199000Y0205650D01*
X0209000Y0205650D02*
X0209000Y0202850D01*
D12*
X0189500Y0177750D03*
X0189500Y0167750D03*
X0179500Y0167750D03*
X0169500Y0167750D03*
X0159500Y0167750D03*
X0159500Y0177750D03*
X0169500Y0177750D03*
X0179500Y0177750D03*
D13*
X0044000Y0097750D02*
X0044000Y0094750D01*
X0034000Y0094750D02*
X0034000Y0097750D01*
X0024000Y0097750D02*
X0024000Y0094750D01*
D14*
X0023500Y0167750D03*
X0023500Y0177750D03*
X0191500Y0064250D03*
X0191500Y0054250D03*
X0191500Y0044250D03*
X0191500Y0034250D03*
D15*
X0045050Y0133456D02*
X0042036Y0133456D01*
X0042036Y0138044D01*
X0045050Y0138044D01*
X0045050Y0133456D01*
X0045050Y0133905D02*
X0042036Y0133905D01*
X0042036Y0134354D02*
X0045050Y0134354D01*
X0045050Y0134803D02*
X0042036Y0134803D01*
X0042036Y0135252D02*
X0045050Y0135252D01*
X0045050Y0135701D02*
X0042036Y0135701D01*
X0042036Y0136150D02*
X0045050Y0136150D01*
X0045050Y0136599D02*
X0042036Y0136599D01*
X0042036Y0137048D02*
X0045050Y0137048D01*
X0045050Y0137497D02*
X0042036Y0137497D01*
X0042036Y0137946D02*
X0045050Y0137946D01*
X0037964Y0133456D02*
X0034950Y0133456D01*
X0034950Y0138044D01*
X0037964Y0138044D01*
X0037964Y0133456D01*
X0037964Y0133905D02*
X0034950Y0133905D01*
X0034950Y0134354D02*
X0037964Y0134354D01*
X0037964Y0134803D02*
X0034950Y0134803D01*
X0034950Y0135252D02*
X0037964Y0135252D01*
X0037964Y0135701D02*
X0034950Y0135701D01*
X0034950Y0136150D02*
X0037964Y0136150D01*
X0037964Y0136599D02*
X0034950Y0136599D01*
X0034950Y0137048D02*
X0037964Y0137048D01*
X0037964Y0137497D02*
X0034950Y0137497D01*
X0034950Y0137946D02*
X0037964Y0137946D01*
X0029550Y0133456D02*
X0026536Y0133456D01*
X0026536Y0138044D01*
X0029550Y0138044D01*
X0029550Y0133456D01*
X0029550Y0133905D02*
X0026536Y0133905D01*
X0026536Y0134354D02*
X0029550Y0134354D01*
X0029550Y0134803D02*
X0026536Y0134803D01*
X0026536Y0135252D02*
X0029550Y0135252D01*
X0029550Y0135701D02*
X0026536Y0135701D01*
X0026536Y0136150D02*
X0029550Y0136150D01*
X0029550Y0136599D02*
X0026536Y0136599D01*
X0026536Y0137048D02*
X0029550Y0137048D01*
X0029550Y0137497D02*
X0026536Y0137497D01*
X0026536Y0137946D02*
X0029550Y0137946D01*
X0022464Y0133456D02*
X0019450Y0133456D01*
X0019450Y0138044D01*
X0022464Y0138044D01*
X0022464Y0133456D01*
X0022464Y0133905D02*
X0019450Y0133905D01*
X0019450Y0134354D02*
X0022464Y0134354D01*
X0022464Y0134803D02*
X0019450Y0134803D01*
X0019450Y0135252D02*
X0022464Y0135252D01*
X0022464Y0135701D02*
X0019450Y0135701D01*
X0019450Y0136150D02*
X0022464Y0136150D01*
X0022464Y0136599D02*
X0019450Y0136599D01*
X0019450Y0137048D02*
X0022464Y0137048D01*
X0022464Y0137497D02*
X0019450Y0137497D01*
X0019450Y0137946D02*
X0022464Y0137946D01*
M02*
