G75*
%MOIN*%
%OFA0B0*%
%FSLAX25Y25*%
%IPPOS*%
%LPD*%
%AMOC8*
5,1,8,0,0,1.08239X$1,22.5*
%
%ADD10C,0.12998*%
%ADD11C,0.06000*%
%ADD12OC8,0.07000*%
%ADD13C,0.06400*%
%ADD14C,0.07800*%
%ADD15C,0.00450*%
D10*
X0014000Y0014250D03*
X0019000Y0204250D03*
X0219000Y0144250D03*
X0219000Y0034250D03*
D11*
X0139000Y0015650D02*
X0139000Y0012850D01*
X0129000Y0012850D02*
X0129000Y0015650D01*
X0119000Y0015650D02*
X0119000Y0012850D01*
X0109000Y0012850D02*
X0109000Y0015650D01*
X0099000Y0015650D02*
X0099000Y0012850D01*
X0089000Y0012850D02*
X0089000Y0015650D01*
X0079000Y0015650D02*
X0079000Y0012850D01*
X0069000Y0012850D02*
X0069000Y0015650D01*
X0073000Y0202850D02*
X0073000Y0205650D01*
X0063000Y0205650D02*
X0063000Y0202850D01*
X0053000Y0202850D02*
X0053000Y0205650D01*
X0043000Y0205650D02*
X0043000Y0202850D01*
X0033000Y0202850D02*
X0033000Y0205650D01*
X0083000Y0205650D02*
X0083000Y0202850D01*
X0093000Y0202850D02*
X0093000Y0205650D01*
X0103000Y0205650D02*
X0103000Y0202850D01*
X0113000Y0202850D02*
X0113000Y0205650D01*
X0123000Y0205650D02*
X0123000Y0202850D01*
X0139000Y0202850D02*
X0139000Y0205650D01*
X0149000Y0205650D02*
X0149000Y0202850D01*
X0159000Y0202850D02*
X0159000Y0205650D01*
X0169000Y0205650D02*
X0169000Y0202850D01*
X0179000Y0202850D02*
X0179000Y0205650D01*
X0189000Y0205650D02*
X0189000Y0202850D01*
X0199000Y0202850D02*
X0199000Y0205650D01*
X0209000Y0205650D02*
X0209000Y0202850D01*
D12*
X0189500Y0177750D03*
X0189500Y0167750D03*
X0179500Y0167750D03*
X0169500Y0167750D03*
X0159500Y0167750D03*
X0159500Y0177750D03*
X0169500Y0177750D03*
X0179500Y0177750D03*
D13*
X0044000Y0097750D02*
X0044000Y0094750D01*
X0034000Y0094750D02*
X0034000Y0097750D01*
X0024000Y0097750D02*
X0024000Y0094750D01*
D14*
X0023500Y0167750D03*
X0023500Y0177750D03*
X0191500Y0064250D03*
X0191500Y0054250D03*
X0191500Y0044250D03*
X0191500Y0034250D03*
D15*
X0191950Y0161544D02*
X0194964Y0161544D01*
X0194964Y0156956D01*
X0191950Y0156956D01*
X0191950Y0161544D01*
X0191950Y0157405D02*
X0194964Y0157405D01*
X0194964Y0157854D02*
X0191950Y0157854D01*
X0191950Y0158303D02*
X0194964Y0158303D01*
X0194964Y0158752D02*
X0191950Y0158752D01*
X0191950Y0159201D02*
X0194964Y0159201D01*
X0194964Y0159650D02*
X0191950Y0159650D01*
X0191950Y0160099D02*
X0194964Y0160099D01*
X0194964Y0160548D02*
X0191950Y0160548D01*
X0191950Y0160997D02*
X0194964Y0160997D01*
X0194964Y0161446D02*
X0191950Y0161446D01*
X0199036Y0161544D02*
X0202050Y0161544D01*
X0202050Y0156956D01*
X0199036Y0156956D01*
X0199036Y0161544D01*
X0199036Y0157405D02*
X0202050Y0157405D01*
X0202050Y0157854D02*
X0199036Y0157854D01*
X0199036Y0158303D02*
X0202050Y0158303D01*
X0202050Y0158752D02*
X0199036Y0158752D01*
X0199036Y0159201D02*
X0202050Y0159201D01*
X0202050Y0159650D02*
X0199036Y0159650D01*
X0199036Y0160099D02*
X0202050Y0160099D01*
X0202050Y0160548D02*
X0199036Y0160548D01*
X0199036Y0160997D02*
X0202050Y0160997D01*
X0202050Y0161446D02*
X0199036Y0161446D01*
M02*
