%
M48
M72
T01C0.0236
T02C0.0335
T03C0.0374
T04C0.0400
T05C0.1260
%
T01
X10900Y4425
X12175Y5100
X13950Y10625
X15100Y11675
X11300Y15125
X9350Y15675
X8300Y17825
X2800Y14725
T02
X3300Y20425
X4300Y20425
X5300Y20425
X6300Y20425
X7300Y20425
X8300Y20425
X9300Y20425
X10300Y20425
X11300Y20425
X12300Y20425
X13900Y20425
X14900Y20425
X15900Y20425
X16900Y20425
X17900Y20425
X18900Y20425
X19900Y20425
X20900Y20425
X13900Y1425
X12900Y1425
X11900Y1425
X10900Y1425
X9900Y1425
X8900Y1425
X7900Y1425
X6900Y1425
T03
X15950Y16775
X16950Y16775
X17950Y16775
X17950Y17775
X16950Y17775
X15950Y17775
X18950Y17775
X18950Y16775
T04
X21950Y10725
X21950Y9725
X21950Y8725
X21950Y7725
X4400Y9625
X3400Y9625
X2400Y9625
X2350Y16775
X2350Y17775
T05
X1400Y1425
X1900Y20425
X21900Y14425
X21900Y3425
M30
