G75*
%MOIN*%
%OFA0B0*%
%FSLAX25Y25*%
%IPPOS*%
%LPD*%
%AMOC8*
5,1,8,0,0,1.08239X$1,22.5*
%
%ADD10C,0.00600*%
%ADD11C,0.00500*%
D10*
X0174500Y0165250D02*
X0174500Y0180250D01*
X0177000Y0182750D01*
X0182000Y0182750D01*
X0184500Y0180250D01*
X0184500Y0165250D01*
X0182000Y0162750D01*
X0177000Y0162750D01*
X0174500Y0165250D01*
X0184500Y0165250D02*
X0187000Y0162750D01*
X0192000Y0162750D01*
X0194500Y0165250D01*
X0194500Y0180250D01*
X0192000Y0182750D01*
X0187000Y0182750D01*
X0184500Y0180250D01*
D11*
X0193499Y0185500D02*
X0194250Y0185500D01*
X0194250Y0186251D01*
X0193499Y0186251D01*
X0193499Y0185500D01*
X0195799Y0164902D02*
X0195482Y0164585D01*
X0195482Y0164268D01*
X0195799Y0163951D01*
X0195482Y0163634D01*
X0195482Y0163317D01*
X0195799Y0163000D01*
X0196433Y0163000D01*
X0196750Y0163317D01*
X0196116Y0163951D02*
X0195799Y0163951D01*
X0195799Y0164902D02*
X0196433Y0164902D01*
X0196750Y0164585D01*
X0197692Y0164585D02*
X0198009Y0164902D01*
X0198643Y0164902D01*
X0198960Y0164585D01*
X0198960Y0163317D01*
X0198643Y0163000D01*
X0198009Y0163000D01*
X0197692Y0163317D01*
M02*
