%
M48
M72
T01C0.0236
T02C0.0320
T03C0.0335
T04C0.0374
T05C0.0400
T06C0.1260
%
T01
X20038Y4350
X28388Y4350
X24038Y11200
X23038Y11150
X21038Y11300
X20038Y14200
X16288Y11300
T02
X16288Y10250
X17288Y10250
X14088Y10250
X13088Y10250
T03
X16038Y1550
X17038Y1550
X18038Y1550
X19038Y1550
X20038Y1550
X21038Y1550
X22038Y1550
X23038Y1550
X25038Y1550
X26038Y1550
X27038Y1550
X28038Y1550
X29038Y1550
X30038Y1550
X30038Y20550
X29038Y20550
X28038Y20550
X27038Y20550
X26038Y20550
X25038Y20550
X24038Y20550
X23038Y20550
X21438Y20550
X20438Y20550
X19438Y20550
X18438Y20550
X17438Y20550
X16438Y20550
X15438Y20550
X14438Y20550
X13438Y20550
X12438Y20550
T04
X12238Y19250
X13238Y19250
X13238Y18250
X12238Y18250
X11238Y18250
X11238Y19250
X12238Y17250
X13238Y17250
X13238Y16250
X12238Y16250
X15288Y16650
X16288Y16650
X16288Y17650
X15288Y17650
X25088Y17900
X26088Y17900
X27088Y17900
X28088Y17900
X28088Y16900
X27088Y16900
X26088Y16900
X25088Y16900
X30088Y12550
X31088Y12550
X31088Y11550
X30088Y11550
X30088Y10550
X31088Y10550
X31238Y6400
X30238Y6400
X30238Y5400
X31238Y5400
T05
X17288Y14200
X16288Y14200
X15288Y14200
T06
X10538Y1550
X31038Y3550
X31038Y14550
X11038Y20550
M30
