G75*
%MOIN*%
%OFA0B0*%
%FSLAX24Y24*%
%IPPOS*%
%LPD*%
%AMOC8*
5,1,8,0,0,1.08239X$1,22.5*
%
%ADD10C,0.0100*%
%ADD11C,0.0120*%
%ADD12C,0.0070*%
%ADD13C,0.0050*%
%ADD14C,0.0130*%
%ADD15C,0.0060*%
%ADD16C,0.0080*%
%ADD17C,0.0190*%
%ADD18C,0.0000*%
%ADD19C,0.0160*%
%ADD20C,0.0200*%
%ADD21R,0.0750X0.0500*%
%ADD22R,0.0700X0.0300*%
%ADD23R,0.0300X0.0500*%
D10*
X009538Y000894D02*
X009538Y021256D01*
X009542Y021289D01*
X009550Y021322D01*
X009561Y021353D01*
X009576Y021384D01*
X009593Y021412D01*
X009614Y021439D01*
X009637Y021463D01*
X009662Y021485D01*
X009690Y021504D01*
X009719Y021520D01*
X009750Y021533D01*
X009782Y021542D01*
X009815Y021548D01*
X009849Y021551D01*
X009882Y021550D01*
X030438Y021550D01*
X031038Y020950D01*
X031038Y016450D01*
X032038Y015450D01*
X032038Y002550D01*
X031038Y001550D01*
X031038Y000944D01*
X031036Y000905D01*
X031030Y000867D01*
X031021Y000830D01*
X031008Y000793D01*
X030991Y000758D01*
X030972Y000725D01*
X030949Y000694D01*
X030923Y000665D01*
X030894Y000639D01*
X030863Y000616D01*
X030830Y000597D01*
X030795Y000580D01*
X030758Y000567D01*
X030721Y000558D01*
X030683Y000552D01*
X030644Y000550D01*
X009882Y000550D01*
X009846Y000552D01*
X009810Y000558D01*
X009776Y000567D01*
X009742Y000580D01*
X009710Y000596D01*
X009680Y000616D01*
X009652Y000638D01*
X009626Y000664D01*
X009604Y000692D01*
X009584Y000722D01*
X009568Y000754D01*
X009555Y000788D01*
X009546Y000822D01*
X009540Y000858D01*
X009538Y000894D01*
X024988Y003000D02*
X024988Y003374D01*
X025175Y003560D01*
X025362Y003374D01*
X025362Y003000D01*
X025596Y003000D02*
X025596Y003560D01*
X025969Y003000D01*
X025969Y003560D01*
X026203Y003374D02*
X026390Y003560D01*
X026577Y003374D01*
X026577Y003000D01*
X026811Y003000D02*
X027185Y003000D01*
X027419Y003093D02*
X027512Y003000D01*
X027699Y003000D01*
X027792Y003093D01*
X027792Y003467D01*
X027699Y003560D01*
X027512Y003560D01*
X027419Y003467D01*
X027419Y003093D01*
X028026Y003093D02*
X028026Y003467D01*
X028120Y003560D01*
X028307Y003560D01*
X028400Y003467D01*
X028400Y003280D02*
X028213Y003280D01*
X028400Y003280D02*
X028400Y003093D01*
X028307Y003000D01*
X028120Y003000D01*
X028026Y003093D01*
X026811Y003000D02*
X026811Y003560D01*
X026203Y003374D02*
X026203Y003000D01*
X026203Y003280D02*
X026577Y003280D01*
X025362Y003280D02*
X024988Y003280D01*
X029242Y003000D02*
X029429Y003000D01*
X029335Y003000D02*
X029335Y003560D01*
X029242Y003560D02*
X029429Y003560D01*
X029647Y003560D02*
X030021Y003000D01*
X030021Y003560D01*
X029647Y003560D02*
X029647Y003000D01*
X016888Y009950D02*
X016888Y010250D01*
X016888Y010550D01*
X016688Y010550D02*
X016688Y010250D01*
X016688Y009950D01*
X013688Y009950D02*
X013688Y010250D01*
X013688Y010550D01*
X013488Y010550D02*
X013488Y010250D01*
X013488Y009950D01*
X017888Y013327D02*
X018015Y013200D01*
X018141Y013327D01*
X018268Y013200D01*
X018395Y013327D01*
X018395Y013707D01*
X018680Y013707D02*
X018680Y013327D01*
X018807Y013200D01*
X018933Y013327D01*
X019060Y013200D01*
X019187Y013327D01*
X019187Y013707D01*
X019472Y013707D02*
X019472Y013327D01*
X019598Y013200D01*
X019725Y013327D01*
X019852Y013200D01*
X019979Y013327D01*
X019979Y013707D01*
X020264Y013327D02*
X020390Y013327D01*
X020390Y013200D01*
X020264Y013200D01*
X020264Y013327D01*
X020659Y013327D02*
X020786Y013454D01*
X021167Y013454D01*
X021167Y013580D02*
X021167Y013200D01*
X020786Y013200D01*
X020659Y013327D01*
X021040Y013707D02*
X021167Y013580D01*
X021040Y013707D02*
X020786Y013707D01*
X021451Y013707D02*
X021451Y013200D01*
X021451Y013454D02*
X021705Y013707D01*
X021832Y013707D01*
X022111Y013580D02*
X022238Y013707D01*
X022618Y013707D01*
X022618Y013961D02*
X022618Y013200D01*
X022238Y013200D01*
X022111Y013327D01*
X022111Y013580D01*
X022903Y013707D02*
X022903Y013327D01*
X023030Y013200D01*
X023410Y013200D01*
X023410Y013707D01*
X023695Y013707D02*
X023822Y013707D01*
X023822Y013200D01*
X023695Y013200D02*
X023949Y013200D01*
X024223Y013200D02*
X024223Y013707D01*
X024603Y013707D01*
X024730Y013580D01*
X024730Y013200D01*
X025015Y013327D02*
X025015Y013580D01*
X025142Y013707D01*
X025395Y013707D01*
X025522Y013580D01*
X025522Y013327D01*
X025395Y013200D01*
X025142Y013200D01*
X025015Y013327D01*
X025807Y013327D02*
X025933Y013327D01*
X025933Y013200D01*
X025807Y013200D01*
X025807Y013327D01*
X026203Y013327D02*
X026203Y013580D01*
X026329Y013707D01*
X026710Y013707D01*
X026994Y013580D02*
X026994Y013327D01*
X027121Y013200D01*
X027502Y013200D01*
X027121Y013707D02*
X026994Y013580D01*
X027121Y013707D02*
X027502Y013707D01*
X026710Y013200D02*
X026329Y013200D01*
X026203Y013327D01*
X023822Y013961D02*
X023822Y014087D01*
X017888Y013707D02*
X017888Y013327D01*
X020502Y018086D02*
X020782Y018086D01*
X020876Y018179D01*
X020876Y018553D01*
X020782Y018646D01*
X020502Y018646D01*
X020502Y018086D01*
X021110Y018086D02*
X021297Y018086D01*
X021203Y018086D02*
X021203Y018646D01*
X021110Y018646D02*
X021297Y018646D01*
X021515Y018553D02*
X021515Y018179D01*
X021609Y018086D01*
X021795Y018086D01*
X021889Y018179D01*
X021889Y018366D01*
X021702Y018366D01*
X021889Y018553D02*
X021795Y018646D01*
X021609Y018646D01*
X021515Y018553D01*
X022123Y018646D02*
X022310Y018646D01*
X022216Y018646D02*
X022216Y018086D01*
X022123Y018086D02*
X022310Y018086D01*
X022715Y018086D02*
X022715Y018646D01*
X022528Y018646D02*
X022902Y018646D01*
X023136Y018460D02*
X023322Y018646D01*
X023509Y018460D01*
X023509Y018086D01*
X023743Y018086D02*
X024117Y018086D01*
X023743Y018086D02*
X023743Y018646D01*
X023509Y018366D02*
X023136Y018366D01*
X023136Y018460D02*
X023136Y018086D01*
X013638Y019750D02*
X013640Y019770D01*
X013646Y019788D01*
X013655Y019806D01*
X013667Y019821D01*
X013682Y019833D01*
X013700Y019842D01*
X013718Y019848D01*
X013738Y019850D01*
X013758Y019848D01*
X013776Y019842D01*
X013794Y019833D01*
X013809Y019821D01*
X013821Y019806D01*
X013830Y019788D01*
X013836Y019770D01*
X013838Y019750D01*
X013836Y019730D01*
X013830Y019712D01*
X013821Y019694D01*
X013809Y019679D01*
X013794Y019667D01*
X013776Y019658D01*
X013758Y019652D01*
X013738Y019650D01*
X013718Y019652D01*
X013700Y019658D01*
X013682Y019667D01*
X013667Y019679D01*
X013655Y019694D01*
X013646Y019712D01*
X013640Y019730D01*
X013638Y019750D01*
D11*
X028688Y018700D02*
X029038Y019050D01*
X029388Y018700D01*
X028688Y018700D01*
X028838Y018750D02*
X029038Y018950D01*
X029238Y018750D01*
X028938Y018750D01*
X029088Y018850D01*
X029738Y019050D02*
X030088Y018700D01*
X030438Y019050D01*
X029738Y019050D01*
X029888Y019000D02*
X030288Y019000D01*
X030088Y018800D01*
X029938Y018950D01*
X030138Y018950D01*
X030088Y018900D02*
X030088Y018850D01*
D12*
X030181Y019369D02*
X029854Y019696D01*
X030181Y019696D01*
X030263Y019615D01*
X030263Y019451D01*
X030181Y019369D01*
X029854Y019369D01*
X029772Y019451D01*
X029772Y019615D01*
X029854Y019696D01*
X029263Y019696D02*
X029263Y019369D01*
X029263Y019533D02*
X028772Y019533D01*
X028936Y019369D01*
X028263Y019369D02*
X028263Y019696D01*
X028263Y019369D02*
X027936Y019696D01*
X027854Y019696D01*
X027772Y019615D01*
X027772Y019451D01*
X027854Y019369D01*
X027263Y019451D02*
X027263Y019615D01*
X027181Y019696D01*
X027099Y019696D01*
X027018Y019615D01*
X027018Y019533D01*
X027018Y019615D02*
X026936Y019696D01*
X026854Y019696D01*
X026772Y019615D01*
X026772Y019451D01*
X026854Y019369D01*
X027181Y019369D02*
X027263Y019451D01*
X026263Y019615D02*
X025772Y019615D01*
X026018Y019369D01*
X026018Y019696D01*
X025263Y019615D02*
X025263Y019451D01*
X025181Y019369D01*
X025018Y019369D02*
X024936Y019533D01*
X024936Y019615D01*
X025018Y019696D01*
X025181Y019696D01*
X025263Y019615D01*
X025018Y019369D02*
X024772Y019369D01*
X024772Y019696D01*
X024263Y019615D02*
X024263Y019451D01*
X024181Y019369D01*
X024018Y019369D01*
X024018Y019615D01*
X024099Y019696D01*
X024181Y019696D01*
X024263Y019615D01*
X024018Y019369D02*
X023854Y019533D01*
X023772Y019696D01*
X023263Y019369D02*
X023181Y019369D01*
X022854Y019696D01*
X022772Y019696D01*
X022772Y019369D01*
X021663Y019451D02*
X021581Y019369D01*
X021499Y019369D01*
X021418Y019451D01*
X021418Y019615D01*
X021499Y019696D01*
X021581Y019696D01*
X021663Y019615D01*
X021663Y019451D01*
X021418Y019451D02*
X021336Y019369D01*
X021254Y019369D01*
X021172Y019451D01*
X021172Y019615D01*
X021254Y019696D01*
X021336Y019696D01*
X021418Y019615D01*
X020663Y019615D02*
X020663Y019451D01*
X020581Y019369D01*
X020418Y019451D02*
X020418Y019696D01*
X020581Y019696D02*
X020254Y019696D01*
X020172Y019615D01*
X020172Y019451D01*
X020254Y019369D01*
X020336Y019369D01*
X020418Y019451D01*
X020663Y019615D02*
X020581Y019696D01*
X019663Y019615D02*
X019663Y019451D01*
X019581Y019369D01*
X019254Y019696D01*
X019581Y019696D01*
X019663Y019615D01*
X019581Y019369D02*
X019254Y019369D01*
X019172Y019451D01*
X019172Y019615D01*
X019254Y019696D01*
X018663Y019696D02*
X018663Y019369D01*
X018663Y019533D02*
X018172Y019533D01*
X018336Y019369D01*
X018663Y019181D02*
X018663Y018854D01*
X018663Y019017D02*
X018172Y019017D01*
X018336Y018854D01*
X017663Y018854D02*
X017663Y019181D01*
X017663Y019017D02*
X017172Y019017D01*
X017336Y018854D01*
X017254Y019369D02*
X017172Y019451D01*
X017172Y019615D01*
X017254Y019696D01*
X017336Y019696D01*
X017663Y019369D01*
X017663Y019696D01*
X016663Y019615D02*
X016663Y019451D01*
X016581Y019369D01*
X016663Y019181D02*
X016663Y018854D01*
X016663Y019017D02*
X016172Y019017D01*
X016336Y018854D01*
X016254Y019369D02*
X016172Y019451D01*
X016172Y019615D01*
X016254Y019696D01*
X016336Y019696D01*
X016418Y019615D01*
X016499Y019696D01*
X016581Y019696D01*
X016663Y019615D01*
X016418Y019615D02*
X016418Y019533D01*
X019172Y019017D02*
X019663Y019017D01*
X019663Y018854D02*
X019663Y019181D01*
X019336Y018854D02*
X019172Y019017D01*
X019623Y002775D02*
X019623Y002530D01*
X019786Y002612D01*
X019868Y002612D01*
X019950Y002530D01*
X019950Y002367D01*
X019868Y002285D01*
X019705Y002285D01*
X019623Y002367D01*
X019623Y002775D02*
X019950Y002775D01*
X020139Y002775D02*
X020139Y002448D01*
X020302Y002285D01*
X020465Y002448D01*
X020465Y002775D01*
X020826Y002688D02*
X020826Y002362D01*
X020908Y002280D01*
X021071Y002280D01*
X021153Y002362D01*
X021153Y002525D01*
X020990Y002525D01*
X021153Y002688D02*
X021071Y002770D01*
X020908Y002770D01*
X020826Y002688D01*
X021342Y002770D02*
X021669Y002280D01*
X021669Y002770D01*
X021857Y002770D02*
X022103Y002770D01*
X022184Y002688D01*
X022184Y002362D01*
X022103Y002280D01*
X021857Y002280D01*
X021857Y002770D01*
X022523Y002775D02*
X022523Y002448D01*
X022686Y002285D01*
X022850Y002448D01*
X022850Y002775D01*
X023039Y002775D02*
X023202Y002775D01*
X023120Y002775D02*
X023120Y002285D01*
X023039Y002285D02*
X023202Y002285D01*
X023382Y002285D02*
X023382Y002775D01*
X023709Y002285D01*
X023709Y002775D01*
X021342Y002770D02*
X021342Y002280D01*
D13*
X021268Y003245D02*
X021344Y003320D01*
X021344Y003620D01*
X021268Y003695D01*
X021118Y003695D01*
X021043Y003620D01*
X021043Y003320D01*
X021118Y003245D01*
X021268Y003245D01*
X021504Y003245D02*
X021654Y003395D01*
X021804Y003245D01*
X021804Y003695D01*
X021964Y003695D02*
X021964Y003245D01*
X022264Y003245D01*
X022424Y003245D02*
X022424Y003695D01*
X022650Y003695D01*
X022725Y003620D01*
X022725Y003470D01*
X022650Y003395D01*
X022424Y003395D01*
X022575Y003395D02*
X022725Y003245D01*
X022264Y003695D02*
X021964Y003695D01*
X021964Y003470D02*
X022114Y003470D01*
X021504Y003695D02*
X021504Y003245D01*
X020883Y003470D02*
X020883Y003620D01*
X020808Y003695D01*
X020583Y003695D01*
X020583Y003245D01*
X020583Y003395D02*
X020808Y003395D01*
X020883Y003470D01*
X024743Y002513D02*
X024743Y002280D01*
X024743Y002455D02*
X024977Y002455D01*
X024977Y002513D02*
X024977Y002280D01*
X025112Y002338D02*
X025345Y002572D01*
X025345Y002338D01*
X025287Y002280D01*
X025170Y002280D01*
X025112Y002338D01*
X025112Y002572D01*
X025170Y002630D01*
X025287Y002630D01*
X025345Y002572D01*
X024977Y002513D02*
X024860Y002630D01*
X024743Y002513D01*
X025743Y002513D02*
X025743Y002280D01*
X025743Y002455D02*
X025977Y002455D01*
X025977Y002513D02*
X025977Y002280D01*
X026112Y002280D02*
X026345Y002280D01*
X026229Y002280D02*
X026229Y002630D01*
X026112Y002513D01*
X025977Y002513D02*
X025860Y002630D01*
X025743Y002513D01*
X026743Y002513D02*
X026743Y002280D01*
X026743Y002455D02*
X026977Y002455D01*
X026977Y002513D02*
X026977Y002280D01*
X027112Y002280D02*
X027345Y002513D01*
X027345Y002572D01*
X027287Y002630D01*
X027170Y002630D01*
X027112Y002572D01*
X026977Y002513D02*
X026860Y002630D01*
X026743Y002513D01*
X027112Y002280D02*
X027345Y002280D01*
X027743Y002280D02*
X027743Y002513D01*
X027860Y002630D01*
X027977Y002513D01*
X027977Y002280D01*
X028112Y002338D02*
X028170Y002280D01*
X028287Y002280D01*
X028345Y002338D01*
X028345Y002397D01*
X028287Y002455D01*
X028229Y002455D01*
X028287Y002455D02*
X028345Y002513D01*
X028345Y002572D01*
X028287Y002630D01*
X028170Y002630D01*
X028112Y002572D01*
X027977Y002455D02*
X027743Y002455D01*
X028743Y002455D02*
X028977Y002455D01*
X028977Y002513D02*
X028977Y002280D01*
X029112Y002455D02*
X029345Y002455D01*
X029287Y002630D02*
X029112Y002455D01*
X028977Y002513D02*
X028860Y002630D01*
X028743Y002513D01*
X028743Y002280D01*
X029287Y002280D02*
X029287Y002630D01*
X029743Y002513D02*
X029860Y002630D01*
X029977Y002513D01*
X029977Y002280D01*
X030112Y002338D02*
X030170Y002280D01*
X030287Y002280D01*
X030345Y002338D01*
X030345Y002455D01*
X030287Y002513D01*
X030229Y002513D01*
X030112Y002455D01*
X030112Y002630D01*
X030345Y002630D01*
X029977Y002455D02*
X029743Y002455D01*
X029743Y002513D02*
X029743Y002280D01*
X029388Y004925D02*
X029463Y005000D01*
X029463Y005075D01*
X029388Y005150D01*
X029013Y005150D01*
X029013Y005075D02*
X029013Y005225D01*
X029013Y005385D02*
X029013Y005611D01*
X029088Y005686D01*
X029238Y005686D01*
X029313Y005611D01*
X029313Y005385D01*
X029463Y005385D02*
X029013Y005385D01*
X029088Y005846D02*
X029013Y005921D01*
X029013Y006071D01*
X029088Y006146D01*
X029163Y006146D01*
X029238Y006071D01*
X029313Y006146D01*
X029388Y006146D01*
X029463Y006071D01*
X029463Y005921D01*
X029388Y005846D01*
X029238Y005996D02*
X029238Y006071D01*
X029088Y010140D02*
X029088Y010290D01*
X029088Y010215D02*
X029538Y010215D01*
X029538Y010140D02*
X029538Y010290D01*
X029463Y010446D02*
X029163Y010446D01*
X029088Y010522D01*
X029088Y010672D01*
X029163Y010747D01*
X029163Y010907D02*
X029238Y010907D01*
X029313Y010982D01*
X029313Y011132D01*
X029388Y011207D01*
X029463Y011207D01*
X029538Y011132D01*
X029538Y010982D01*
X029463Y010907D01*
X029463Y010747D02*
X029538Y010672D01*
X029538Y010522D01*
X029463Y010446D01*
X029163Y010907D02*
X029088Y010982D01*
X029088Y011132D01*
X029163Y011207D01*
X029088Y011367D02*
X029088Y011592D01*
X029163Y011668D01*
X029313Y011668D01*
X029388Y011592D01*
X029388Y011367D01*
X029538Y011367D02*
X029088Y011367D01*
X017553Y009175D02*
X017253Y009175D01*
X017403Y009175D02*
X017403Y009625D01*
X017253Y009475D01*
X017092Y009550D02*
X017017Y009625D01*
X016867Y009625D01*
X016792Y009550D01*
X016792Y009250D01*
X016867Y009175D01*
X017017Y009175D01*
X017092Y009250D01*
X014353Y009175D02*
X014053Y009175D01*
X014353Y009475D01*
X014353Y009550D01*
X014278Y009625D01*
X014128Y009625D01*
X014053Y009550D01*
X013892Y009550D02*
X013817Y009625D01*
X013667Y009625D01*
X013592Y009550D01*
X013592Y009250D01*
X013667Y009175D01*
X013817Y009175D01*
X013892Y009250D01*
X014313Y012895D02*
X014463Y012895D01*
X014388Y012895D02*
X014388Y013345D01*
X014313Y013345D02*
X014463Y013345D01*
X014620Y013270D02*
X014620Y012970D01*
X014695Y012895D01*
X014845Y012895D01*
X014920Y012970D01*
X015080Y012895D02*
X015380Y012895D01*
X015230Y012895D02*
X015230Y013345D01*
X015080Y013195D01*
X014920Y013270D02*
X014845Y013345D01*
X014695Y013345D01*
X014620Y013270D01*
X017438Y016794D02*
X017513Y016869D01*
X017513Y016944D01*
X017438Y017019D01*
X017063Y017019D01*
X017063Y016944D02*
X017063Y017094D01*
X017063Y017254D02*
X017063Y017479D01*
X017138Y017554D01*
X017288Y017554D01*
X017363Y017479D01*
X017363Y017254D01*
X017513Y017254D02*
X017063Y017254D01*
X017213Y017715D02*
X017063Y017865D01*
X017513Y017865D01*
X017513Y017715D02*
X017513Y018015D01*
X024613Y018675D02*
X024613Y019125D01*
X024913Y018675D01*
X024913Y019125D01*
X025073Y019125D02*
X025298Y019125D01*
X025374Y019050D01*
X025374Y018900D01*
X025298Y018825D01*
X025073Y018825D01*
X025073Y018675D02*
X025073Y019125D01*
X025223Y018825D02*
X025374Y018675D01*
X025534Y018675D02*
X025534Y019125D01*
X025834Y019125D01*
X025994Y019050D02*
X026069Y019125D01*
X026219Y019125D01*
X026294Y019050D01*
X026294Y018975D01*
X025994Y018675D01*
X026294Y018675D01*
X025684Y018900D02*
X025534Y018900D01*
X004685Y018942D02*
X004685Y019075D01*
X004619Y019142D01*
X004485Y019142D01*
X004419Y019075D01*
X004419Y018942D01*
X004485Y018875D01*
X004619Y018875D01*
X004685Y018942D01*
X004271Y018875D02*
X004271Y019075D01*
X004204Y019142D01*
X004004Y019142D01*
X004004Y018875D01*
X003861Y018875D02*
X003728Y018875D01*
X003795Y018875D02*
X003795Y019142D01*
X003728Y019142D01*
X003585Y019142D02*
X003452Y019142D01*
X003518Y019209D02*
X003518Y018942D01*
X003585Y018875D01*
X003590Y018625D02*
X003657Y018625D01*
X003657Y018225D01*
X003723Y018225D02*
X003590Y018225D01*
X003442Y018358D02*
X003175Y018358D01*
X003175Y018292D02*
X003175Y018425D01*
X003242Y018492D01*
X003376Y018492D01*
X003442Y018425D01*
X003442Y018358D01*
X003376Y018225D02*
X003242Y018225D01*
X003175Y018292D01*
X003028Y018225D02*
X003028Y018625D01*
X002895Y018492D01*
X002761Y018625D01*
X002761Y018225D01*
X002621Y018225D02*
X002554Y018225D01*
X002554Y018292D01*
X002621Y018292D01*
X002621Y018225D01*
X002406Y018292D02*
X002406Y018559D01*
X002340Y018625D01*
X002140Y018625D01*
X002140Y018225D01*
X002340Y018225D01*
X002406Y018292D01*
X002278Y018875D02*
X002278Y019275D01*
X002411Y019142D01*
X002545Y019275D01*
X002545Y018875D01*
X002692Y018942D02*
X002759Y019008D01*
X002959Y019008D01*
X002959Y019075D02*
X002959Y018875D01*
X002759Y018875D01*
X002692Y018942D01*
X002759Y019142D02*
X002892Y019142D01*
X002959Y019075D01*
X003106Y019008D02*
X003240Y019142D01*
X003307Y019142D01*
X003106Y019142D02*
X003106Y018875D01*
X003106Y019525D02*
X003173Y019525D01*
X003173Y019592D01*
X003106Y019592D01*
X003106Y019525D01*
X003314Y019525D02*
X003447Y019525D01*
X003380Y019525D02*
X003380Y019925D01*
X003314Y019925D02*
X003447Y019925D01*
X003452Y020125D02*
X003585Y020125D01*
X003518Y020125D02*
X003518Y020525D01*
X003452Y020525D01*
X003304Y020325D02*
X003304Y020258D01*
X003037Y020258D01*
X003037Y020192D02*
X003037Y020325D01*
X003104Y020392D01*
X003238Y020392D01*
X003304Y020325D01*
X003238Y020125D02*
X003104Y020125D01*
X003037Y020192D01*
X002895Y020125D02*
X002761Y020125D01*
X002828Y020125D02*
X002828Y020392D01*
X002761Y020392D01*
X002618Y020392D02*
X002485Y020392D01*
X002552Y020459D02*
X002552Y020192D01*
X002618Y020125D01*
X002692Y019925D02*
X002959Y019925D01*
X002826Y019925D02*
X002826Y019525D01*
X003590Y019592D02*
X003657Y019525D01*
X003857Y019525D01*
X003857Y019458D02*
X003857Y019792D01*
X003657Y019792D01*
X003590Y019725D01*
X003590Y019592D01*
X003723Y019392D02*
X003790Y019392D01*
X003857Y019458D01*
X003795Y019342D02*
X003795Y019275D01*
X004071Y019525D02*
X004004Y019592D01*
X004004Y019725D01*
X004071Y019792D01*
X004204Y019792D01*
X004271Y019725D01*
X004271Y019592D01*
X004204Y019525D01*
X004071Y019525D01*
X004419Y019592D02*
X004419Y019725D01*
X004485Y019792D01*
X004619Y019792D01*
X004685Y019725D01*
X004685Y019658D01*
X004419Y019658D01*
X004419Y019592D02*
X004485Y019525D01*
X004619Y019525D01*
X004619Y020125D02*
X004419Y020125D01*
X004485Y020258D02*
X004419Y020325D01*
X004485Y020392D01*
X004685Y020392D01*
X004619Y020258D02*
X004485Y020258D01*
X004619Y020258D02*
X004685Y020192D01*
X004619Y020125D01*
X004271Y020258D02*
X004004Y020258D01*
X004004Y020192D02*
X004004Y020325D01*
X004071Y020392D01*
X004204Y020392D01*
X004271Y020325D01*
X004271Y020258D01*
X004204Y020125D02*
X004071Y020125D01*
X004004Y020192D01*
X003861Y020125D02*
X003728Y020125D01*
X003795Y020125D02*
X003795Y020525D01*
X003728Y020525D01*
X003758Y020875D02*
X003758Y021142D01*
X003958Y021142D01*
X004025Y021075D01*
X004025Y020875D01*
X004172Y020875D02*
X004439Y020875D01*
X004587Y020875D02*
X004720Y020875D01*
X004653Y020875D02*
X004653Y021142D01*
X004587Y021142D01*
X004439Y021142D02*
X004172Y020875D01*
X004172Y021142D02*
X004439Y021142D01*
X004653Y021275D02*
X004653Y021342D01*
X003610Y021075D02*
X003610Y020875D01*
X003410Y020875D01*
X003344Y020942D01*
X003410Y021008D01*
X003610Y021008D01*
X003610Y021075D02*
X003544Y021142D01*
X003410Y021142D01*
X003196Y021142D02*
X003196Y021209D01*
X003129Y021275D01*
X002929Y021275D01*
X002929Y020875D01*
X003129Y020875D01*
X003196Y020942D01*
X003196Y021008D01*
X003129Y021075D01*
X002929Y021075D01*
X002789Y020942D02*
X002789Y020875D01*
X002722Y020875D01*
X002722Y020942D01*
X002789Y020942D01*
X002575Y020875D02*
X002575Y021275D01*
X002441Y021142D01*
X002308Y021275D01*
X002308Y020875D01*
X002828Y020592D02*
X002828Y020525D01*
X002340Y020392D02*
X002273Y020392D01*
X002140Y020258D01*
X002140Y020125D02*
X002140Y020392D01*
X001992Y020325D02*
X001992Y020125D01*
X001792Y020125D01*
X001725Y020192D01*
X001792Y020258D01*
X001992Y020258D01*
X001992Y020325D02*
X001925Y020392D01*
X001792Y020392D01*
X001578Y020392D02*
X001578Y020125D01*
X001378Y020125D01*
X001311Y020192D01*
X001311Y020392D01*
X001163Y020459D02*
X001097Y020525D01*
X000963Y020525D01*
X000897Y020459D01*
X000897Y020192D01*
X000963Y020125D01*
X001097Y020125D01*
X001163Y020192D01*
X000756Y020192D02*
X000756Y020125D01*
X000689Y020125D01*
X000689Y020192D01*
X000756Y020192D01*
X000542Y020192D02*
X000542Y020459D01*
X000475Y020525D01*
X000275Y020525D01*
X000275Y020125D01*
X000475Y020125D01*
X000542Y020192D01*
X001656Y019209D02*
X001656Y018942D01*
X001723Y018875D01*
X001856Y018875D01*
X001923Y018942D01*
X001923Y019075D01*
X001790Y019075D01*
X001923Y019209D02*
X001856Y019275D01*
X001723Y019275D01*
X001656Y019209D01*
X002071Y018942D02*
X002137Y018942D01*
X002137Y018875D01*
X002071Y018875D01*
X002071Y018942D01*
X003866Y018625D02*
X003933Y018625D01*
X003933Y018225D01*
X003866Y018225D02*
X004000Y018225D01*
X004142Y018225D02*
X004276Y018225D01*
X004209Y018225D02*
X004209Y018492D01*
X004142Y018492D01*
X004209Y018625D02*
X004209Y018692D01*
X004419Y018425D02*
X004485Y018492D01*
X004685Y018492D01*
X004619Y018358D02*
X004485Y018358D01*
X004419Y018425D01*
X004419Y018225D02*
X004619Y018225D01*
X004685Y018292D01*
X004619Y018358D01*
X003129Y021075D02*
X003196Y021142D01*
D14*
X021103Y016262D02*
X021103Y015615D01*
X021750Y015615D02*
X021750Y016262D01*
X021427Y016586D01*
X021103Y016262D01*
X021103Y016100D02*
X021750Y016100D01*
X022116Y015939D02*
X022439Y016262D01*
X022601Y016262D01*
X022960Y016100D02*
X023122Y016262D01*
X023607Y016262D01*
X023607Y016586D02*
X023607Y015615D01*
X023122Y015615D01*
X022960Y015777D01*
X022960Y016100D01*
X022116Y016262D02*
X022116Y015615D01*
X023973Y015777D02*
X024134Y015615D01*
X024620Y015615D01*
X024620Y016262D01*
X024986Y016262D02*
X025147Y016262D01*
X025147Y015615D01*
X024986Y015615D02*
X025309Y015615D01*
X025661Y015615D02*
X025661Y016262D01*
X026146Y016262D01*
X026308Y016100D01*
X026308Y015615D01*
X026674Y015777D02*
X026835Y015615D01*
X027159Y015615D01*
X027321Y015777D01*
X027321Y016100D01*
X027159Y016262D01*
X026835Y016262D01*
X026674Y016100D01*
X026674Y015777D01*
X025147Y016586D02*
X025147Y016748D01*
X023973Y016262D02*
X023973Y015777D01*
D15*
X024838Y016400D02*
X025338Y016400D01*
X025588Y016650D01*
X025588Y018150D01*
X025838Y018400D01*
X026338Y018400D01*
X026588Y018150D01*
X026588Y016650D01*
X026338Y016400D01*
X025838Y016400D01*
X025588Y016650D01*
X024838Y016400D02*
X024588Y016650D01*
X024588Y018150D01*
X024838Y018400D01*
X025338Y018400D01*
X025588Y018150D01*
X025208Y018993D02*
X024828Y018993D01*
X024828Y019120D02*
X025208Y019120D01*
X025081Y019184D02*
X025081Y018930D01*
X024954Y018930D02*
X024954Y019120D01*
X024954Y019184D01*
X024258Y019120D02*
X023878Y019120D01*
X024004Y019120D02*
X024004Y018930D01*
X024131Y018930D02*
X024131Y019184D01*
X024004Y019184D02*
X024004Y019120D01*
X023878Y018993D02*
X024258Y018993D01*
X023590Y017910D02*
X023464Y017910D01*
X023590Y017910D02*
X023590Y017530D01*
X023464Y017530D01*
X023312Y017530D02*
X023312Y017910D01*
X023185Y017784D01*
X023059Y017910D01*
X023059Y017530D01*
X022907Y017530D02*
X022907Y017910D01*
X022653Y017910D02*
X022653Y017530D01*
X022780Y017657D01*
X022907Y017530D01*
X022502Y017720D02*
X022438Y017657D01*
X022248Y017657D01*
X022248Y017530D02*
X022248Y017910D01*
X022438Y017910D01*
X022502Y017847D01*
X022502Y017720D01*
X022097Y017657D02*
X021843Y017657D01*
X021843Y017784D02*
X022097Y017784D01*
X021692Y017784D02*
X021628Y017784D01*
X021438Y017784D01*
X021438Y017657D02*
X021692Y017657D01*
X021628Y017530D02*
X021628Y017910D01*
X021501Y017910D02*
X021501Y017530D01*
X021295Y017530D02*
X021168Y017530D01*
X021168Y017910D01*
X021295Y017910D01*
X020608Y018993D02*
X020228Y018993D01*
X020228Y019120D02*
X020608Y019120D01*
X020481Y019184D02*
X020481Y018930D01*
X020354Y018930D02*
X020354Y019120D01*
X020354Y019184D01*
X019658Y018620D02*
X019278Y018620D01*
X019404Y018620D02*
X019404Y018430D01*
X019531Y018430D02*
X019531Y018684D01*
X019404Y018684D02*
X019404Y018620D01*
X019278Y018493D02*
X019658Y018493D01*
X018658Y018493D02*
X018278Y018493D01*
X018278Y018620D02*
X018658Y018620D01*
X018531Y018684D02*
X018531Y018430D01*
X018404Y018430D02*
X018404Y018620D01*
X018404Y018684D01*
X017608Y017889D02*
X017501Y017996D01*
X017074Y017996D01*
X016967Y017889D01*
X016967Y017569D01*
X017608Y017569D01*
X017608Y017889D01*
X016788Y017900D02*
X016788Y017400D01*
X016538Y017150D01*
X015038Y017150D01*
X014788Y016900D01*
X014788Y016400D01*
X015038Y016150D01*
X016538Y016150D01*
X016788Y016400D01*
X016788Y016900D01*
X016538Y017150D01*
X016967Y017352D02*
X017608Y017352D01*
X016967Y016925D01*
X017608Y016925D01*
X017501Y016707D02*
X017288Y016707D01*
X017288Y016494D01*
X017501Y016707D02*
X017608Y016600D01*
X017608Y016387D01*
X017501Y016280D01*
X017074Y016280D01*
X016967Y016387D01*
X016967Y016600D01*
X017074Y016707D01*
X016788Y017900D02*
X016538Y018150D01*
X015038Y018150D01*
X014788Y017900D01*
X014788Y017400D01*
X015038Y017150D01*
X014608Y016975D02*
X014394Y017188D01*
X014608Y017402D01*
X013967Y017402D01*
X013967Y017619D02*
X013967Y017939D01*
X014074Y018046D01*
X014288Y018046D01*
X014394Y017939D01*
X014394Y017619D01*
X014394Y017833D02*
X014608Y018046D01*
X014630Y018206D02*
X014296Y018206D01*
X014129Y018039D01*
X014296Y017873D01*
X014630Y017873D01*
X014379Y017873D02*
X014379Y018206D01*
X014463Y018388D02*
X014463Y018638D01*
X014379Y018722D01*
X014213Y018722D01*
X014129Y018638D01*
X014129Y018388D01*
X014630Y018388D01*
X014463Y018555D02*
X014630Y018722D01*
X014630Y018904D02*
X014129Y018904D01*
X014129Y019238D01*
X014129Y019420D02*
X014129Y019753D01*
X014379Y019586D02*
X014379Y019420D01*
X014129Y019420D02*
X014630Y019420D01*
X014630Y019238D02*
X014630Y018904D01*
X014379Y018904D02*
X014379Y019071D01*
X015067Y018891D02*
X015708Y019318D01*
X015067Y019318D01*
X015175Y019228D02*
X015675Y019228D01*
X015175Y018894D01*
X015675Y018894D01*
X015708Y018891D02*
X015067Y018891D01*
X015174Y018673D02*
X015067Y018567D01*
X015067Y018353D01*
X015174Y018246D01*
X015601Y018246D01*
X015708Y018353D01*
X015708Y018567D01*
X015601Y018673D01*
X015388Y018673D01*
X015388Y018460D01*
X015425Y018545D02*
X015425Y018712D01*
X015592Y018712D01*
X015675Y018628D01*
X015675Y018462D01*
X015592Y018378D01*
X015258Y018378D01*
X015175Y018462D01*
X015175Y018628D01*
X015258Y018712D01*
X015175Y019410D02*
X015175Y019660D01*
X015258Y019743D01*
X015592Y019743D01*
X015675Y019660D01*
X015675Y019410D01*
X015175Y019410D01*
X015067Y019535D02*
X015067Y019856D01*
X015174Y019962D01*
X015601Y019962D01*
X015708Y019856D01*
X015708Y019535D01*
X015067Y019535D01*
X015188Y020050D02*
X014938Y020300D01*
X014688Y020050D01*
X014188Y020050D01*
X013938Y020300D01*
X013938Y020800D01*
X014188Y021050D01*
X014688Y021050D01*
X014938Y020800D01*
X015188Y021050D01*
X015688Y021050D01*
X015938Y020800D01*
X016188Y021050D01*
X016688Y021050D01*
X016938Y020800D01*
X017188Y021050D01*
X017688Y021050D01*
X017938Y020800D01*
X018188Y021050D01*
X018688Y021050D01*
X018938Y020800D01*
X019188Y021050D01*
X019688Y021050D01*
X019938Y020800D01*
X020188Y021050D01*
X020688Y021050D01*
X020938Y020800D01*
X021188Y021050D01*
X021688Y021050D01*
X021938Y020800D01*
X021938Y020300D01*
X021688Y020050D01*
X021188Y020050D01*
X020938Y020300D01*
X020688Y020050D01*
X020188Y020050D01*
X019938Y020300D01*
X019938Y020800D01*
X019938Y020300D02*
X019688Y020050D01*
X019188Y020050D01*
X018938Y020300D01*
X018688Y020050D01*
X018188Y020050D01*
X017938Y020300D01*
X017688Y020050D01*
X017188Y020050D01*
X016938Y020300D01*
X016938Y020800D01*
X016938Y020300D02*
X016688Y020050D01*
X016188Y020050D01*
X015938Y020300D01*
X015688Y020050D01*
X015188Y020050D01*
X014938Y020300D02*
X014938Y020800D01*
X013938Y020800D02*
X013688Y021050D01*
X013188Y021050D01*
X012938Y020800D01*
X012688Y021050D01*
X012188Y021050D01*
X011938Y020800D01*
X011938Y020300D01*
X012188Y020050D01*
X012688Y020050D01*
X012938Y020300D01*
X012938Y020800D01*
X012938Y020300D02*
X013188Y020050D01*
X013688Y020050D01*
X013938Y020300D01*
X013488Y019750D02*
X012988Y019750D01*
X012738Y019500D01*
X012738Y018000D01*
X012488Y017750D01*
X011988Y017750D01*
X013488Y017750D01*
X013738Y017500D01*
X013738Y017000D01*
X013488Y016750D01*
X011988Y016750D01*
X011738Y017000D01*
X011738Y017500D01*
X011988Y017750D01*
X011738Y018000D01*
X011488Y017750D01*
X010988Y017750D01*
X010738Y018000D01*
X010738Y019500D01*
X010988Y019750D01*
X011488Y019750D01*
X011738Y019500D01*
X011738Y018000D01*
X012738Y018000D02*
X012988Y017750D01*
X013488Y017750D01*
X013738Y018000D01*
X013738Y019500D01*
X013488Y019750D01*
X012738Y019500D02*
X012488Y019750D01*
X011988Y019750D01*
X011738Y019500D01*
X013967Y017619D02*
X014608Y017619D01*
X014608Y016975D02*
X013967Y016975D01*
X014074Y016757D02*
X014288Y016757D01*
X014394Y016650D01*
X014394Y016330D01*
X014608Y016330D02*
X013967Y016330D01*
X013967Y016650D01*
X014074Y016757D01*
X013738Y016500D02*
X013738Y016000D01*
X013488Y015750D01*
X011988Y015750D01*
X011738Y016000D01*
X011738Y016500D01*
X011988Y016750D01*
X013488Y016750D02*
X013738Y016500D01*
X014288Y014750D02*
X014288Y013600D01*
X014388Y013500D01*
X018188Y013500D01*
X018288Y013600D01*
X018288Y014750D01*
X018018Y013071D02*
X017591Y013071D01*
X017591Y012750D01*
X017804Y012857D01*
X017911Y012857D01*
X018018Y012750D01*
X018018Y012537D01*
X017911Y012430D01*
X017697Y012430D01*
X017591Y012537D01*
X017373Y012537D02*
X017266Y012430D01*
X017053Y012430D01*
X016946Y012537D01*
X017373Y012964D01*
X017373Y012537D01*
X016946Y012537D02*
X016946Y012964D01*
X017053Y013071D01*
X017266Y013071D01*
X017373Y012964D01*
X016729Y012964D02*
X016729Y012857D01*
X016622Y012750D01*
X016408Y012750D01*
X016302Y012857D01*
X016302Y012964D01*
X016408Y013071D01*
X016622Y013071D01*
X016729Y012964D01*
X016622Y012750D02*
X016729Y012644D01*
X016729Y012537D01*
X016622Y012430D01*
X016408Y012430D01*
X016302Y012537D01*
X016302Y012644D01*
X016408Y012750D01*
X016084Y012964D02*
X015657Y012537D01*
X015657Y012430D01*
X015439Y012430D02*
X015439Y013071D01*
X015226Y012857D01*
X015012Y013071D01*
X015012Y012430D01*
X014795Y012430D02*
X014368Y012430D01*
X014368Y013071D01*
X015657Y013071D02*
X016084Y013071D01*
X016084Y012964D01*
X015938Y010750D02*
X017638Y010750D01*
X017655Y010748D01*
X017672Y010744D01*
X017688Y010737D01*
X017702Y010727D01*
X017715Y010714D01*
X017725Y010700D01*
X017732Y010684D01*
X017736Y010667D01*
X017738Y010650D01*
X017738Y009850D01*
X017736Y009833D01*
X017732Y009816D01*
X017725Y009800D01*
X017715Y009786D01*
X017702Y009773D01*
X017688Y009763D01*
X017672Y009756D01*
X017655Y009752D01*
X017638Y009750D01*
X015938Y009750D01*
X015921Y009752D01*
X015904Y009756D01*
X015888Y009763D01*
X015874Y009773D01*
X015861Y009786D01*
X015851Y009800D01*
X015844Y009816D01*
X015840Y009833D01*
X015838Y009850D01*
X015838Y010650D01*
X015840Y010667D01*
X015844Y010684D01*
X015851Y010700D01*
X015861Y010714D01*
X015874Y010727D01*
X015888Y010737D01*
X015904Y010744D01*
X015921Y010748D01*
X015938Y010750D01*
X016638Y010250D02*
X016688Y010250D01*
X016888Y010250D02*
X016938Y010250D01*
X017176Y009471D02*
X017176Y008830D01*
X017389Y008830D02*
X016962Y008830D01*
X016745Y008937D02*
X016638Y008830D01*
X016425Y008830D01*
X016318Y008937D01*
X016318Y009364D01*
X016425Y009471D01*
X016638Y009471D01*
X016745Y009364D01*
X016962Y009257D02*
X017176Y009471D01*
X018618Y009687D02*
X018725Y009580D01*
X018938Y009580D01*
X019045Y009687D01*
X019262Y009794D02*
X019476Y010007D01*
X019583Y010007D01*
X019800Y010007D02*
X019906Y010007D01*
X019906Y009580D01*
X019800Y009580D02*
X020013Y009580D01*
X020336Y009687D02*
X020443Y009580D01*
X020336Y009687D02*
X020336Y010114D01*
X020229Y010007D02*
X020443Y010007D01*
X020659Y010007D02*
X020766Y010007D01*
X020766Y009580D01*
X020872Y009580D02*
X020659Y009580D01*
X021089Y009687D02*
X021195Y009580D01*
X021516Y009580D01*
X021733Y009687D02*
X021840Y009794D01*
X022160Y009794D01*
X022160Y009900D02*
X022160Y009580D01*
X021840Y009580D01*
X021733Y009687D01*
X021840Y010007D02*
X022053Y010007D01*
X022160Y009900D01*
X022378Y010221D02*
X022485Y010221D01*
X022485Y009580D01*
X022591Y009580D02*
X022378Y009580D01*
X022378Y009171D02*
X022378Y008530D01*
X022805Y008530D01*
X023022Y008530D02*
X023236Y008530D01*
X023129Y008530D02*
X023129Y008957D01*
X023022Y008957D01*
X023129Y009171D02*
X023129Y009277D01*
X023452Y008957D02*
X023772Y008957D01*
X023879Y008850D01*
X023879Y008530D01*
X024097Y008637D02*
X024097Y008850D01*
X024203Y008957D01*
X024417Y008957D01*
X024524Y008850D01*
X024524Y008744D01*
X024097Y008744D01*
X024097Y008637D02*
X024203Y008530D01*
X024417Y008530D01*
X025386Y008530D02*
X025386Y009171D01*
X025491Y009580D02*
X025171Y009794D01*
X025491Y010007D01*
X025708Y009900D02*
X025708Y009687D01*
X025815Y009580D01*
X026028Y009580D01*
X026135Y009794D02*
X025708Y009794D01*
X025708Y009900D02*
X025815Y010007D01*
X026028Y010007D01*
X026135Y009900D01*
X026135Y009794D01*
X026352Y009794D02*
X026566Y010007D01*
X026673Y010007D01*
X026890Y009900D02*
X026996Y009794D01*
X027210Y009794D01*
X027317Y009687D01*
X027210Y009580D01*
X026890Y009580D01*
X026890Y009900D02*
X026996Y010007D01*
X027317Y010007D01*
X026352Y010007D02*
X026352Y009580D01*
X026137Y009277D02*
X026137Y009171D01*
X026137Y008957D02*
X026137Y008530D01*
X026030Y008530D02*
X026244Y008530D01*
X026460Y008637D02*
X026460Y008850D01*
X026567Y008957D01*
X026887Y008957D01*
X026887Y008423D01*
X026780Y008316D01*
X026673Y008316D01*
X026567Y008530D02*
X026887Y008530D01*
X027104Y008530D02*
X027104Y009171D01*
X027211Y008957D02*
X027425Y008957D01*
X027531Y008850D01*
X027531Y008530D01*
X027856Y008637D02*
X027963Y008530D01*
X027856Y008637D02*
X027856Y009064D01*
X027749Y008957D02*
X027963Y008957D01*
X027211Y008957D02*
X027104Y008850D01*
X026567Y008530D02*
X026460Y008637D01*
X026137Y008957D02*
X026030Y008957D01*
X025813Y008530D02*
X025386Y008530D01*
X025276Y007907D02*
X025063Y007907D01*
X024956Y007800D01*
X024956Y007587D01*
X025063Y007480D01*
X025276Y007480D01*
X025383Y007694D02*
X024956Y007694D01*
X024738Y007587D02*
X024632Y007480D01*
X024311Y007480D01*
X024418Y007694D02*
X024311Y007800D01*
X024418Y007907D01*
X024738Y007907D01*
X024632Y007694D02*
X024418Y007694D01*
X024632Y007694D02*
X024738Y007587D01*
X024094Y007587D02*
X023987Y007480D01*
X023774Y007480D01*
X023667Y007587D01*
X023667Y007800D01*
X023774Y007907D01*
X023987Y007907D01*
X024094Y007800D01*
X024094Y007587D01*
X023989Y007071D02*
X023989Y006430D01*
X023989Y006644D02*
X024309Y006430D01*
X024526Y006430D02*
X024526Y006857D01*
X024847Y006857D01*
X024953Y006750D01*
X024953Y006430D01*
X025171Y006537D02*
X025171Y006750D01*
X025278Y006857D01*
X025491Y006857D01*
X025598Y006750D01*
X025598Y006537D01*
X025491Y006430D01*
X025278Y006430D01*
X025171Y006537D01*
X025815Y006644D02*
X026029Y006857D01*
X026136Y006857D01*
X025815Y006857D02*
X025815Y006430D01*
X026459Y007266D02*
X026565Y007266D01*
X026672Y007373D01*
X026672Y007907D01*
X026352Y007907D01*
X026245Y007800D01*
X026245Y007587D01*
X026352Y007480D01*
X026672Y007480D01*
X026890Y007480D02*
X026890Y007907D01*
X027103Y007907D02*
X027210Y007907D01*
X027103Y007907D02*
X026890Y007694D01*
X027427Y007694D02*
X027854Y007694D01*
X027854Y007800D01*
X027747Y007907D01*
X027533Y007907D01*
X027427Y007800D01*
X027427Y007587D01*
X027533Y007480D01*
X027747Y007480D01*
X028071Y007480D02*
X028071Y007907D01*
X028392Y007907D01*
X028498Y007800D01*
X028498Y007480D01*
X028676Y006721D02*
X028889Y006507D01*
X028889Y006080D01*
X028462Y006080D02*
X028462Y006507D01*
X028676Y006721D01*
X028462Y006400D02*
X028889Y006400D01*
X029107Y006721D02*
X029534Y006721D01*
X029321Y006721D02*
X029321Y006080D01*
X029738Y006150D02*
X029738Y006650D01*
X029988Y006900D01*
X031488Y006900D01*
X031738Y006650D01*
X031738Y006150D01*
X031488Y005900D01*
X029988Y005900D01*
X029738Y006150D01*
X029988Y005900D02*
X029738Y005650D01*
X029738Y005150D01*
X029988Y004900D01*
X031488Y004900D01*
X031738Y005150D01*
X031738Y005650D01*
X031488Y005900D01*
X031331Y004764D02*
X031331Y004337D01*
X031118Y004550D02*
X031545Y004550D01*
X030495Y004550D02*
X030068Y004550D01*
X030151Y003412D02*
X030258Y003306D01*
X030258Y003092D01*
X030151Y002985D01*
X029938Y002985D02*
X029831Y003199D01*
X029831Y003306D01*
X029938Y003412D01*
X030151Y003412D01*
X029617Y003412D02*
X029617Y002985D01*
X029938Y002985D01*
X029938Y002768D02*
X029938Y002341D01*
X029831Y002341D02*
X029617Y002554D01*
X029831Y002768D01*
X030258Y002768D01*
X030258Y002341D02*
X029831Y002341D01*
X029788Y002050D02*
X029538Y001800D01*
X029538Y001300D01*
X029788Y001050D01*
X030288Y001050D01*
X030538Y001300D01*
X030538Y001800D01*
X030288Y002050D01*
X029788Y002050D01*
X029538Y001800D02*
X029288Y002050D01*
X028788Y002050D01*
X028538Y001800D01*
X028538Y001300D01*
X028788Y001050D01*
X029288Y001050D01*
X029538Y001300D01*
X028538Y001300D02*
X028288Y001050D01*
X027788Y001050D01*
X027538Y001300D01*
X027288Y001050D01*
X026788Y001050D01*
X026538Y001300D01*
X026288Y001050D01*
X025788Y001050D01*
X025538Y001300D01*
X025288Y001050D01*
X024788Y001050D01*
X024538Y001300D01*
X024538Y001800D01*
X024788Y002050D01*
X025288Y002050D01*
X025538Y001800D01*
X025788Y002050D01*
X026288Y002050D01*
X026538Y001800D01*
X026538Y001300D01*
X026538Y001800D02*
X026788Y002050D01*
X027288Y002050D01*
X027538Y001800D01*
X027788Y002050D01*
X028288Y002050D01*
X028538Y001800D01*
X028308Y002341D02*
X027881Y002341D01*
X027667Y002554D01*
X027881Y002768D01*
X028308Y002768D01*
X028201Y002985D02*
X028308Y003092D01*
X028308Y003306D01*
X028201Y003412D01*
X028094Y003412D01*
X027988Y003306D01*
X027988Y003199D01*
X027988Y003306D02*
X027881Y003412D01*
X027774Y003412D01*
X027667Y003306D01*
X027667Y003092D01*
X027774Y002985D01*
X027988Y002768D02*
X027988Y002341D01*
X027308Y002341D02*
X026881Y002341D01*
X026667Y002554D01*
X026881Y002768D01*
X027308Y002768D01*
X027308Y002985D02*
X026881Y003412D01*
X026774Y003412D01*
X026667Y003306D01*
X026667Y003092D01*
X026774Y002985D01*
X026988Y002768D02*
X026988Y002341D01*
X026258Y002341D02*
X025831Y002341D01*
X025617Y002554D01*
X025831Y002768D01*
X026258Y002768D01*
X026258Y002985D02*
X026258Y003412D01*
X026258Y003199D02*
X025617Y003199D01*
X025831Y002985D01*
X025938Y002768D02*
X025938Y002341D01*
X025308Y002341D02*
X024881Y002341D01*
X024667Y002554D01*
X024881Y002768D01*
X025308Y002768D01*
X025201Y002985D02*
X024774Y002985D01*
X024667Y003092D01*
X024667Y003306D01*
X024774Y003412D01*
X025201Y002985D01*
X025308Y003092D01*
X025308Y003306D01*
X025201Y003412D01*
X024774Y003412D01*
X024988Y002768D02*
X024988Y002341D01*
X025538Y001800D02*
X025538Y001300D01*
X023538Y001300D02*
X023288Y001050D01*
X022788Y001050D01*
X022538Y001300D01*
X022288Y001050D01*
X021788Y001050D01*
X021538Y001300D01*
X021288Y001050D01*
X020788Y001050D01*
X020538Y001300D01*
X020288Y001050D01*
X019788Y001050D01*
X019538Y001300D01*
X019288Y001050D01*
X018788Y001050D01*
X018538Y001300D01*
X018288Y001050D01*
X017788Y001050D01*
X017538Y001300D01*
X017288Y001050D01*
X016788Y001050D01*
X016538Y001300D01*
X016288Y001050D01*
X015788Y001050D01*
X015538Y001300D01*
X015538Y001800D01*
X015788Y002050D01*
X016288Y002050D01*
X016538Y001800D01*
X016788Y002050D01*
X017288Y002050D01*
X017538Y001800D01*
X017538Y001300D01*
X017538Y001800D02*
X017788Y002050D01*
X018288Y002050D01*
X018538Y001800D01*
X018788Y002050D01*
X019288Y002050D01*
X019538Y001800D01*
X019788Y002050D01*
X020288Y002050D01*
X020538Y001800D01*
X020538Y001300D01*
X020538Y001800D02*
X020788Y002050D01*
X021288Y002050D01*
X021538Y001800D01*
X021788Y002050D01*
X022288Y002050D01*
X022538Y001800D01*
X022788Y002050D01*
X023288Y002050D01*
X023538Y001800D01*
X023538Y001300D01*
X022538Y001300D02*
X022538Y001800D01*
X022251Y002296D02*
X021824Y002296D01*
X021717Y002403D01*
X021717Y002617D01*
X021824Y002723D01*
X022038Y002723D02*
X022038Y002510D01*
X022038Y002723D02*
X022251Y002723D01*
X022358Y002617D01*
X022358Y002403D01*
X022251Y002296D01*
X022717Y002361D02*
X023144Y002361D01*
X023358Y002575D01*
X023144Y002788D01*
X022717Y002788D01*
X022931Y003006D02*
X022931Y003113D01*
X023358Y003113D01*
X023358Y003219D02*
X023358Y003006D01*
X022717Y003113D02*
X022611Y003113D01*
X022358Y002941D02*
X021717Y002941D01*
X022358Y003368D01*
X021717Y003368D01*
X021717Y003585D02*
X021717Y003906D01*
X021824Y004012D01*
X022251Y004012D01*
X022358Y003906D01*
X022358Y003585D01*
X021717Y003585D01*
X021358Y003585D02*
X021358Y003906D01*
X021251Y004012D01*
X020824Y004012D01*
X020717Y003906D01*
X020717Y003585D01*
X021358Y003585D01*
X021358Y003368D02*
X020717Y003368D01*
X020408Y003149D02*
X020194Y003362D01*
X019767Y003362D01*
X019358Y003398D02*
X019358Y003611D01*
X019251Y003718D01*
X019144Y003718D01*
X019038Y003611D01*
X019038Y003504D01*
X018958Y003478D02*
X018958Y003561D01*
X019041Y003645D01*
X019124Y003645D01*
X019208Y003561D01*
X019208Y003395D01*
X019124Y003311D01*
X019251Y003291D02*
X019358Y003398D01*
X019358Y003075D02*
X019251Y003075D01*
X019251Y002969D01*
X019358Y002969D01*
X019358Y003075D01*
X019208Y002962D02*
X019041Y003129D01*
X018707Y003129D01*
X018824Y003291D02*
X018717Y003398D01*
X018717Y003611D01*
X018824Y003718D01*
X018931Y003718D01*
X019038Y003611D01*
X018958Y003561D02*
X018874Y003645D01*
X018791Y003645D01*
X018707Y003561D01*
X018707Y003395D01*
X018791Y003311D01*
X018358Y003379D02*
X018358Y002952D01*
X017717Y002952D01*
X017717Y003379D01*
X017691Y003361D02*
X017774Y003361D01*
X017858Y003445D01*
X017858Y003611D01*
X017941Y003695D01*
X018024Y003695D01*
X018108Y003611D01*
X018108Y003445D01*
X018024Y003361D01*
X018038Y003165D02*
X018038Y002952D01*
X018108Y002846D02*
X018108Y003179D01*
X017858Y003012D02*
X017858Y002846D01*
X017824Y002734D02*
X018038Y002734D01*
X018144Y002628D01*
X018144Y002307D01*
X018108Y002330D02*
X017607Y002330D01*
X017607Y002580D01*
X017691Y002664D01*
X017858Y002664D01*
X017941Y002580D01*
X017941Y002330D01*
X017941Y002497D02*
X018108Y002664D01*
X018144Y002521D02*
X018358Y002734D01*
X018108Y002846D02*
X017607Y002846D01*
X017607Y003179D01*
X017691Y003361D02*
X017607Y003445D01*
X017607Y003611D01*
X017691Y003695D01*
X017717Y003703D02*
X017824Y003596D01*
X017931Y003596D01*
X018038Y003703D01*
X018038Y003917D01*
X018144Y004023D01*
X018251Y004023D01*
X018358Y003917D01*
X018358Y003703D01*
X018251Y003596D01*
X018108Y003877D02*
X018108Y004211D01*
X018038Y004241D02*
X018038Y004454D01*
X018108Y004559D02*
X017607Y004559D01*
X017717Y004668D02*
X017717Y004241D01*
X018358Y004241D01*
X018358Y004668D01*
X018717Y004362D02*
X019144Y004362D01*
X019358Y004149D01*
X019144Y003935D01*
X018717Y003935D01*
X018108Y003877D02*
X017607Y003877D01*
X017607Y004211D01*
X017607Y004393D02*
X017607Y004726D01*
X017717Y004885D02*
X017717Y005312D01*
X017717Y005099D02*
X018358Y005099D01*
X018618Y005380D02*
X018618Y006021D01*
X019045Y006021D01*
X018831Y005700D02*
X018618Y005700D01*
X019262Y005487D02*
X019369Y005594D01*
X019689Y005594D01*
X019689Y005700D02*
X019689Y005380D01*
X019369Y005380D01*
X019262Y005487D01*
X019369Y005807D02*
X019583Y005807D01*
X019689Y005700D01*
X019907Y006021D02*
X020014Y006021D01*
X020014Y005380D01*
X019907Y005380D02*
X020121Y005380D01*
X020337Y005380D02*
X020550Y005380D01*
X020443Y005380D02*
X020443Y006021D01*
X020337Y006021D01*
X020552Y006430D02*
X020765Y006430D01*
X020658Y006430D02*
X020658Y006857D01*
X020552Y006857D01*
X020334Y006857D02*
X020121Y006430D01*
X019907Y006857D01*
X019689Y006750D02*
X019689Y006430D01*
X019369Y006430D01*
X019262Y006537D01*
X019369Y006644D01*
X019689Y006644D01*
X019689Y006750D02*
X019583Y006857D01*
X019369Y006857D01*
X019045Y006964D02*
X018938Y007071D01*
X018618Y007071D01*
X018618Y006430D01*
X018938Y006430D01*
X019045Y006537D01*
X019045Y006964D01*
X018938Y007480D02*
X018618Y007480D01*
X018618Y008121D01*
X018938Y008121D01*
X019045Y008014D01*
X019045Y007907D01*
X018938Y007800D01*
X018618Y007800D01*
X018938Y007800D02*
X019045Y007694D01*
X019045Y007587D01*
X018938Y007480D01*
X019262Y007480D02*
X019262Y007907D01*
X019262Y007694D02*
X019476Y007907D01*
X019583Y007907D01*
X019906Y007907D02*
X020120Y007907D01*
X020227Y007800D01*
X020227Y007480D01*
X019906Y007480D01*
X019800Y007587D01*
X019906Y007694D01*
X020227Y007694D01*
X020444Y007587D02*
X020444Y007800D01*
X020551Y007907D01*
X020871Y007907D01*
X020871Y008121D02*
X020871Y007480D01*
X020551Y007480D01*
X020444Y007587D01*
X020658Y007177D02*
X020658Y007071D01*
X020981Y006750D02*
X021088Y006857D01*
X021408Y006857D01*
X021408Y007071D02*
X021408Y006430D01*
X021088Y006430D01*
X020981Y006537D01*
X020981Y006750D01*
X021195Y007480D02*
X021089Y007587D01*
X021089Y007800D01*
X021195Y007907D01*
X021409Y007907D01*
X021516Y007800D01*
X021516Y007694D01*
X021089Y007694D01*
X021195Y007480D02*
X021409Y007480D01*
X021733Y007480D02*
X021733Y007907D01*
X022053Y007907D01*
X022160Y007800D01*
X022160Y007480D01*
X022270Y007071D02*
X022697Y007071D01*
X022484Y007071D02*
X022484Y006430D01*
X022915Y006430D02*
X023128Y006430D01*
X023022Y006430D02*
X023022Y006857D01*
X022915Y006857D01*
X023022Y007071D02*
X023022Y007177D01*
X023022Y007480D02*
X023022Y008121D01*
X023343Y008121D01*
X023449Y008014D01*
X023449Y007800D01*
X023343Y007694D01*
X023022Y007694D01*
X023236Y007694D02*
X023449Y007480D01*
X023451Y006857D02*
X023345Y006750D01*
X023345Y006537D01*
X023451Y006430D01*
X023772Y006430D01*
X023989Y006644D02*
X024309Y006857D01*
X023772Y006857D02*
X023451Y006857D01*
X023772Y006021D02*
X023558Y005914D01*
X023345Y005700D01*
X023665Y005700D01*
X023772Y005594D01*
X023772Y005487D01*
X023665Y005380D01*
X023451Y005380D01*
X023345Y005487D01*
X023345Y005700D01*
X022914Y005380D02*
X022914Y006021D01*
X022700Y005807D01*
X022483Y005914D02*
X022483Y005487D01*
X022376Y005380D01*
X022162Y005380D01*
X022055Y005487D01*
X022483Y005914D01*
X022376Y006021D01*
X022162Y006021D01*
X022055Y005914D01*
X022055Y005487D01*
X021838Y005380D02*
X021411Y005380D01*
X021838Y005807D01*
X021838Y005914D01*
X021731Y006021D01*
X021518Y006021D01*
X021411Y005914D01*
X022700Y005380D02*
X023127Y005380D01*
X023038Y003862D02*
X023358Y003862D01*
X023038Y003862D02*
X022931Y003756D01*
X022931Y003435D01*
X023358Y003435D01*
X021358Y003368D02*
X020717Y002941D01*
X021358Y002941D01*
X021251Y002723D02*
X021038Y002723D01*
X021038Y002510D01*
X021251Y002723D02*
X021358Y002617D01*
X021358Y002403D01*
X021251Y002296D01*
X020824Y002296D01*
X020717Y002403D01*
X020717Y002617D01*
X020824Y002723D01*
X020408Y002611D02*
X020408Y002398D01*
X020301Y002291D01*
X020088Y002291D02*
X019981Y002504D01*
X019981Y002611D01*
X020088Y002718D01*
X020301Y002718D01*
X020408Y002611D01*
X020194Y002935D02*
X019767Y002935D01*
X019767Y002718D02*
X019767Y002291D01*
X020088Y002291D01*
X019358Y002431D02*
X019251Y002324D01*
X019208Y002363D02*
X019124Y002280D01*
X019208Y002363D02*
X019208Y002530D01*
X019124Y002614D01*
X019041Y002614D01*
X018958Y002530D01*
X018958Y002447D01*
X018958Y002530D02*
X018874Y002614D01*
X018791Y002614D01*
X018707Y002530D01*
X018707Y002363D01*
X018791Y002280D01*
X018824Y002324D02*
X018717Y002431D01*
X018717Y002644D01*
X018824Y002751D01*
X018931Y002751D01*
X019038Y002644D01*
X019144Y002751D01*
X019251Y002751D01*
X019358Y002644D01*
X019358Y002431D01*
X019038Y002538D02*
X019038Y002644D01*
X019041Y002796D02*
X019208Y002962D01*
X019041Y002796D02*
X018707Y002796D01*
X018358Y002307D02*
X017717Y002307D01*
X017717Y002628D01*
X017824Y002734D01*
X017308Y002859D02*
X017308Y003072D01*
X017201Y003179D01*
X016774Y003179D01*
X016667Y003072D01*
X016667Y002859D01*
X016774Y002752D01*
X017201Y002752D01*
X017308Y002859D01*
X017258Y002924D02*
X017174Y003007D01*
X016841Y003007D01*
X016757Y002924D01*
X016757Y002757D01*
X016841Y002674D01*
X017174Y002674D01*
X017258Y002757D01*
X017258Y002924D01*
X017258Y003189D02*
X016757Y003189D01*
X016757Y003440D01*
X016841Y003523D01*
X017008Y003523D01*
X017091Y003440D01*
X017091Y003189D01*
X017091Y003356D02*
X017258Y003523D01*
X017308Y003396D02*
X016667Y003396D01*
X016667Y003717D01*
X016774Y003823D01*
X016988Y003823D01*
X017094Y003717D01*
X017094Y003396D01*
X017094Y003610D02*
X017308Y003823D01*
X017258Y003705D02*
X017258Y004039D01*
X017308Y004041D02*
X017308Y004468D01*
X017308Y004685D02*
X016667Y004685D01*
X016667Y005112D01*
X016988Y004899D02*
X016988Y004685D01*
X016757Y004554D02*
X016757Y004221D01*
X017258Y004221D01*
X017308Y004041D02*
X016667Y004041D01*
X016667Y004468D01*
X017008Y004387D02*
X017008Y004221D01*
X016988Y004254D02*
X016988Y004041D01*
X017008Y003872D02*
X017008Y003705D01*
X017258Y003705D02*
X016757Y003705D01*
X016757Y004039D01*
X016308Y004062D02*
X015881Y004062D01*
X015667Y003849D01*
X015881Y003635D01*
X016308Y003635D01*
X015988Y003635D02*
X015988Y004062D01*
X015667Y003418D02*
X016308Y002991D01*
X016308Y002773D02*
X015667Y002773D01*
X015667Y002346D02*
X016308Y002773D01*
X016667Y002536D02*
X016667Y002322D01*
X016757Y002330D02*
X016757Y002497D01*
X016757Y002413D02*
X017258Y002413D01*
X017308Y002429D02*
X016667Y002429D01*
X016308Y002346D02*
X015667Y002346D01*
X016538Y001800D02*
X016538Y001300D01*
X017258Y002330D02*
X017258Y002497D01*
X017308Y002536D02*
X017308Y002322D01*
X018538Y001800D02*
X018538Y001300D01*
X019538Y001300D02*
X019538Y001800D01*
X020194Y002935D02*
X020408Y003149D01*
X021538Y001800D02*
X021538Y001300D01*
X017717Y003703D02*
X017717Y003917D01*
X017824Y004023D01*
X017858Y004044D02*
X017858Y003877D01*
X025383Y007694D02*
X025383Y007800D01*
X025276Y007907D01*
X025601Y007907D02*
X025921Y007907D01*
X026028Y007800D01*
X026028Y007480D01*
X025601Y007480D02*
X025601Y007907D01*
X027818Y006721D02*
X028138Y006721D01*
X028245Y006614D01*
X028245Y006187D01*
X028138Y006080D01*
X027818Y006080D01*
X027818Y006721D01*
X029968Y007237D02*
X030075Y007130D01*
X030288Y007130D01*
X030395Y007237D01*
X030612Y007130D02*
X031039Y007130D01*
X031257Y007130D02*
X031257Y007771D01*
X031257Y007344D02*
X031684Y007771D01*
X031364Y007450D02*
X031684Y007130D01*
X030612Y007130D02*
X030612Y007771D01*
X030395Y007664D02*
X030288Y007771D01*
X030075Y007771D01*
X029968Y007664D01*
X029968Y007237D01*
X029895Y008530D02*
X029895Y008850D01*
X029788Y008957D01*
X029575Y008957D01*
X029468Y008850D01*
X029250Y008744D02*
X029250Y008637D01*
X029144Y008530D01*
X028930Y008530D01*
X028823Y008637D01*
X028930Y008850D02*
X029144Y008850D01*
X029250Y008744D01*
X029468Y008530D02*
X029468Y009171D01*
X029250Y009064D02*
X029144Y009171D01*
X028930Y009171D01*
X028823Y009064D01*
X028823Y008957D01*
X028930Y008850D01*
X030112Y008850D02*
X030112Y008637D01*
X030219Y008530D01*
X030433Y008530D01*
X030539Y008637D01*
X030539Y008850D01*
X030433Y008957D01*
X030219Y008957D01*
X030112Y008850D01*
X030757Y008957D02*
X030757Y008637D01*
X030864Y008530D01*
X030970Y008637D01*
X031077Y008530D01*
X031184Y008637D01*
X031184Y008957D01*
X031338Y010050D02*
X029838Y010050D01*
X029588Y010300D01*
X029588Y010800D01*
X029838Y011050D01*
X031338Y011050D01*
X031588Y010800D01*
X031588Y010300D01*
X031338Y010050D01*
X031338Y011050D02*
X031588Y011300D01*
X031588Y011800D01*
X031338Y012050D01*
X029838Y012050D01*
X029588Y011800D01*
X029588Y011300D01*
X029838Y011050D01*
X029838Y012050D02*
X029588Y012300D01*
X029588Y012800D01*
X029838Y013050D01*
X031338Y013050D01*
X031588Y012800D01*
X031588Y012300D01*
X031338Y012050D01*
X026434Y012821D02*
X026007Y012821D01*
X026007Y012180D01*
X025789Y012180D02*
X025576Y012394D01*
X025683Y012394D02*
X025362Y012394D01*
X025362Y012180D02*
X025362Y012821D01*
X025683Y012821D01*
X025789Y012714D01*
X025789Y012500D01*
X025683Y012394D01*
X026007Y012500D02*
X026221Y012500D01*
X025145Y012500D02*
X025145Y012180D01*
X024718Y012180D02*
X024718Y012607D01*
X025038Y012607D01*
X025145Y012500D01*
X025171Y010221D02*
X025171Y009580D01*
X024953Y009580D02*
X024953Y009900D01*
X024847Y010007D01*
X024526Y010007D01*
X024526Y009580D01*
X024310Y009580D02*
X024097Y009580D01*
X024203Y009580D02*
X024203Y010007D01*
X024097Y010007D01*
X024203Y010221D02*
X024203Y010327D01*
X023879Y010221D02*
X023452Y010221D01*
X023666Y010221D02*
X023666Y009580D01*
X023452Y008957D02*
X023452Y008530D01*
X021516Y008744D02*
X021089Y008744D01*
X021089Y008850D02*
X021195Y008957D01*
X021409Y008957D01*
X021516Y008850D01*
X021516Y008744D01*
X021409Y008530D02*
X021195Y008530D01*
X021089Y008637D01*
X021089Y008850D01*
X020872Y008957D02*
X020765Y008957D01*
X020552Y008744D01*
X020552Y008957D02*
X020552Y008530D01*
X020334Y008530D02*
X020334Y008850D01*
X020227Y008957D01*
X020014Y008957D01*
X020014Y008744D02*
X020334Y008744D01*
X020334Y008530D02*
X020014Y008530D01*
X019907Y008637D01*
X020014Y008744D01*
X019689Y008850D02*
X019689Y008530D01*
X019689Y008850D02*
X019583Y008957D01*
X019262Y008957D01*
X019262Y008530D01*
X019045Y008637D02*
X018938Y008530D01*
X018725Y008530D01*
X018618Y008637D01*
X018725Y008850D02*
X018938Y008850D01*
X019045Y008744D01*
X019045Y008637D01*
X018725Y008850D02*
X018618Y008957D01*
X018618Y009064D01*
X018725Y009171D01*
X018938Y009171D01*
X019045Y009064D01*
X019262Y009580D02*
X019262Y010007D01*
X019045Y010114D02*
X018938Y010221D01*
X018725Y010221D01*
X018618Y010114D01*
X018618Y009687D01*
X019906Y010221D02*
X019906Y010327D01*
X020766Y010327D02*
X020766Y010221D01*
X021089Y009900D02*
X021089Y009687D01*
X021089Y009900D02*
X021195Y010007D01*
X021516Y010007D01*
X014538Y009850D02*
X014538Y010650D01*
X014536Y010667D01*
X014532Y010684D01*
X014525Y010700D01*
X014515Y010714D01*
X014502Y010727D01*
X014488Y010737D01*
X014472Y010744D01*
X014455Y010748D01*
X014438Y010750D01*
X012738Y010750D01*
X012721Y010748D01*
X012704Y010744D01*
X012688Y010737D01*
X012674Y010727D01*
X012661Y010714D01*
X012651Y010700D01*
X012644Y010684D01*
X012640Y010667D01*
X012638Y010650D01*
X012638Y009850D01*
X012640Y009833D01*
X012644Y009816D01*
X012651Y009800D01*
X012661Y009786D01*
X012674Y009773D01*
X012688Y009763D01*
X012704Y009756D01*
X012721Y009752D01*
X012738Y009750D01*
X014438Y009750D01*
X014455Y009752D01*
X014472Y009756D01*
X014488Y009763D01*
X014502Y009773D01*
X014515Y009786D01*
X014525Y009800D01*
X014532Y009816D01*
X014536Y009833D01*
X014538Y009850D01*
X014089Y009364D02*
X013983Y009471D01*
X013769Y009471D01*
X013662Y009364D01*
X013445Y009364D02*
X013338Y009471D01*
X013125Y009471D01*
X013018Y009364D01*
X013018Y008937D01*
X013125Y008830D01*
X013338Y008830D01*
X013445Y008937D01*
X013662Y008830D02*
X014089Y009257D01*
X014089Y009364D01*
X014089Y008830D02*
X013662Y008830D01*
X013688Y010250D02*
X013738Y010250D01*
X013488Y010250D02*
X013438Y010250D01*
X027308Y003412D02*
X027308Y002985D01*
X028617Y003306D02*
X028938Y002985D01*
X028938Y003412D01*
X029258Y003306D02*
X028617Y003306D01*
X028831Y002768D02*
X029258Y002768D01*
X028938Y002768D02*
X028938Y002341D01*
X028831Y002341D02*
X029258Y002341D01*
X028831Y002341D02*
X028617Y002554D01*
X028831Y002768D01*
X027538Y001800D02*
X027538Y001300D01*
X028848Y016530D02*
X029061Y016744D01*
X029061Y017171D01*
X029279Y017171D02*
X029599Y017171D01*
X029706Y017064D01*
X029706Y016637D01*
X029599Y016530D01*
X029279Y016530D01*
X029279Y017171D01*
X028634Y017171D02*
X028634Y016744D01*
X028848Y016530D01*
X029923Y016530D02*
X030244Y016530D01*
X030350Y016637D01*
X030350Y017064D01*
X030244Y017171D01*
X029923Y017171D01*
X029923Y016530D01*
X029923Y017630D02*
X030244Y017630D01*
X030350Y017737D01*
X030350Y018164D01*
X030244Y018271D01*
X029923Y018271D01*
X029923Y017630D01*
X029807Y017680D02*
X029807Y017930D01*
X029891Y018014D01*
X030058Y018014D01*
X030141Y017930D01*
X030141Y017680D01*
X030141Y017847D02*
X030308Y018014D01*
X030308Y018196D02*
X029807Y018529D01*
X029706Y018271D02*
X029706Y017630D01*
X029279Y018271D01*
X029279Y017630D01*
X029306Y017852D02*
X028806Y017852D01*
X028848Y017950D02*
X029061Y017950D01*
X029061Y017737D01*
X028955Y017630D01*
X028741Y017630D01*
X028634Y017737D01*
X028634Y018164D01*
X028741Y018271D01*
X028955Y018271D01*
X029061Y018164D01*
X029306Y018200D02*
X028806Y018534D01*
X028806Y018200D02*
X029306Y018534D01*
X029807Y018196D02*
X030308Y018529D01*
X030308Y017680D02*
X029807Y017680D01*
X028806Y017685D02*
X028806Y018018D01*
X027208Y018993D02*
X026828Y018993D01*
X026828Y019120D02*
X027208Y019120D01*
X027081Y019184D02*
X027081Y018930D01*
X026954Y018930D02*
X026954Y019120D01*
X026954Y019184D01*
X026788Y020050D02*
X026538Y020300D01*
X026288Y020050D01*
X025788Y020050D01*
X025538Y020300D01*
X025538Y020800D01*
X025788Y021050D01*
X026288Y021050D01*
X026538Y020800D01*
X026788Y021050D01*
X027288Y021050D01*
X027538Y020800D01*
X027788Y021050D01*
X028288Y021050D01*
X028538Y020800D01*
X028788Y021050D01*
X029288Y021050D01*
X029538Y020800D01*
X029788Y021050D01*
X030288Y021050D01*
X030538Y020800D01*
X030538Y020300D01*
X030288Y020050D01*
X029788Y020050D01*
X029538Y020300D01*
X029288Y020050D01*
X028788Y020050D01*
X028538Y020300D01*
X028538Y020800D01*
X028538Y020300D02*
X028288Y020050D01*
X027788Y020050D01*
X027538Y020300D01*
X027288Y020050D01*
X026788Y020050D01*
X026538Y020300D02*
X026538Y020800D01*
X027538Y020800D02*
X027538Y020300D01*
X029538Y020300D02*
X029538Y020800D01*
X025538Y020800D02*
X025288Y021050D01*
X024788Y021050D01*
X024538Y020800D01*
X024288Y021050D01*
X023788Y021050D01*
X023538Y020800D01*
X023288Y021050D01*
X022788Y021050D01*
X022538Y020800D01*
X022538Y020300D01*
X022788Y020050D01*
X023288Y020050D01*
X023538Y020300D01*
X023538Y020800D01*
X023538Y020300D02*
X023788Y020050D01*
X024288Y020050D01*
X024538Y020300D01*
X024538Y020800D01*
X024538Y020300D02*
X024788Y020050D01*
X025288Y020050D01*
X025538Y020300D01*
X020938Y020300D02*
X020938Y020800D01*
X018938Y020800D02*
X018938Y020300D01*
X017938Y020300D02*
X017938Y020800D01*
X015938Y020800D02*
X015938Y020300D01*
X013796Y021758D02*
X013713Y021675D01*
X013796Y021758D02*
X013796Y021925D01*
X013713Y022008D01*
X013629Y022008D01*
X013546Y021925D01*
X013546Y021758D01*
X013463Y021675D01*
X013379Y021675D01*
X013296Y021758D01*
X013296Y021925D01*
X013379Y022008D01*
X013296Y022190D02*
X013296Y022441D01*
X013379Y022524D01*
X013713Y022524D01*
X013796Y022441D01*
X013796Y022190D01*
X013296Y022190D01*
X012696Y022324D02*
X012696Y022491D01*
X012613Y022574D01*
X012696Y022756D02*
X012196Y022756D01*
X012279Y022574D02*
X012196Y022491D01*
X012196Y022324D01*
X012279Y022240D01*
X012613Y022240D01*
X012696Y022324D01*
X012613Y022058D02*
X012529Y022058D01*
X012446Y021975D01*
X012446Y021808D01*
X012363Y021725D01*
X012279Y021725D01*
X012196Y021808D01*
X012196Y021975D01*
X012279Y022058D01*
X012613Y022058D02*
X012696Y021975D01*
X012696Y021808D01*
X012613Y021725D01*
X012696Y022756D02*
X012696Y023090D01*
X013296Y022873D02*
X013463Y023040D01*
X013796Y023040D01*
X013546Y023040D02*
X013546Y022706D01*
X013463Y022706D02*
X013296Y022873D01*
X013463Y022706D02*
X013796Y022706D01*
D16*
X014147Y015310D02*
X014467Y015310D01*
X014307Y015310D02*
X014307Y014830D01*
X014662Y014830D02*
X014983Y015310D01*
X014662Y015310D02*
X014983Y014830D01*
X015083Y014360D02*
X014762Y013880D01*
X014567Y013880D02*
X014407Y014040D01*
X014487Y014040D02*
X014247Y014040D01*
X014247Y013880D02*
X014247Y014360D01*
X014487Y014360D01*
X014567Y014280D01*
X014567Y014120D01*
X014487Y014040D01*
X014762Y014360D02*
X015083Y013880D01*
X027328Y016660D02*
X027541Y016660D01*
X027435Y016660D02*
X027435Y016340D01*
X027696Y016340D02*
X027696Y016660D01*
X027803Y016554D01*
X027910Y016660D01*
X027910Y016340D01*
X029331Y012799D02*
X029331Y012379D01*
X029191Y012379D02*
X029471Y012379D01*
X029191Y012659D02*
X029331Y012799D01*
D17*
X024142Y014322D02*
X024142Y015029D01*
X023965Y015206D01*
X023612Y015206D01*
X023435Y015029D01*
X023435Y014322D01*
X023612Y014145D01*
X023965Y014145D01*
X024142Y014322D01*
X022991Y014145D02*
X022991Y015206D01*
X022284Y015206D02*
X022991Y014145D01*
X022284Y014145D02*
X022284Y015206D01*
X021840Y015206D02*
X021840Y014322D01*
X021663Y014145D01*
X021310Y014145D01*
X021133Y014322D01*
X021133Y015206D01*
D18*
X030408Y014550D02*
X030410Y014600D01*
X030416Y014650D01*
X030426Y014699D01*
X030440Y014747D01*
X030457Y014794D01*
X030478Y014839D01*
X030503Y014883D01*
X030531Y014924D01*
X030563Y014963D01*
X030597Y015000D01*
X030634Y015034D01*
X030674Y015064D01*
X030716Y015091D01*
X030760Y015115D01*
X030806Y015136D01*
X030853Y015152D01*
X030901Y015165D01*
X030951Y015174D01*
X031000Y015179D01*
X031051Y015180D01*
X031101Y015177D01*
X031150Y015170D01*
X031199Y015159D01*
X031247Y015144D01*
X031293Y015126D01*
X031338Y015104D01*
X031381Y015078D01*
X031422Y015049D01*
X031461Y015017D01*
X031497Y014982D01*
X031529Y014944D01*
X031559Y014904D01*
X031586Y014861D01*
X031609Y014817D01*
X031628Y014771D01*
X031644Y014723D01*
X031656Y014674D01*
X031664Y014625D01*
X031668Y014575D01*
X031668Y014525D01*
X031664Y014475D01*
X031656Y014426D01*
X031644Y014377D01*
X031628Y014329D01*
X031609Y014283D01*
X031586Y014239D01*
X031559Y014196D01*
X031529Y014156D01*
X031497Y014118D01*
X031461Y014083D01*
X031422Y014051D01*
X031381Y014022D01*
X031338Y013996D01*
X031293Y013974D01*
X031247Y013956D01*
X031199Y013941D01*
X031150Y013930D01*
X031101Y013923D01*
X031051Y013920D01*
X031000Y013921D01*
X030951Y013926D01*
X030901Y013935D01*
X030853Y013948D01*
X030806Y013964D01*
X030760Y013985D01*
X030716Y014009D01*
X030674Y014036D01*
X030634Y014066D01*
X030597Y014100D01*
X030563Y014137D01*
X030531Y014176D01*
X030503Y014217D01*
X030478Y014261D01*
X030457Y014306D01*
X030440Y014353D01*
X030426Y014401D01*
X030416Y014450D01*
X030410Y014500D01*
X030408Y014550D01*
X030408Y003550D02*
X030410Y003600D01*
X030416Y003650D01*
X030426Y003699D01*
X030440Y003747D01*
X030457Y003794D01*
X030478Y003839D01*
X030503Y003883D01*
X030531Y003924D01*
X030563Y003963D01*
X030597Y004000D01*
X030634Y004034D01*
X030674Y004064D01*
X030716Y004091D01*
X030760Y004115D01*
X030806Y004136D01*
X030853Y004152D01*
X030901Y004165D01*
X030951Y004174D01*
X031000Y004179D01*
X031051Y004180D01*
X031101Y004177D01*
X031150Y004170D01*
X031199Y004159D01*
X031247Y004144D01*
X031293Y004126D01*
X031338Y004104D01*
X031381Y004078D01*
X031422Y004049D01*
X031461Y004017D01*
X031497Y003982D01*
X031529Y003944D01*
X031559Y003904D01*
X031586Y003861D01*
X031609Y003817D01*
X031628Y003771D01*
X031644Y003723D01*
X031656Y003674D01*
X031664Y003625D01*
X031668Y003575D01*
X031668Y003525D01*
X031664Y003475D01*
X031656Y003426D01*
X031644Y003377D01*
X031628Y003329D01*
X031609Y003283D01*
X031586Y003239D01*
X031559Y003196D01*
X031529Y003156D01*
X031497Y003118D01*
X031461Y003083D01*
X031422Y003051D01*
X031381Y003022D01*
X031338Y002996D01*
X031293Y002974D01*
X031247Y002956D01*
X031199Y002941D01*
X031150Y002930D01*
X031101Y002923D01*
X031051Y002920D01*
X031000Y002921D01*
X030951Y002926D01*
X030901Y002935D01*
X030853Y002948D01*
X030806Y002964D01*
X030760Y002985D01*
X030716Y003009D01*
X030674Y003036D01*
X030634Y003066D01*
X030597Y003100D01*
X030563Y003137D01*
X030531Y003176D01*
X030503Y003217D01*
X030478Y003261D01*
X030457Y003306D01*
X030440Y003353D01*
X030426Y003401D01*
X030416Y003450D01*
X030410Y003500D01*
X030408Y003550D01*
X009908Y001550D02*
X009910Y001600D01*
X009916Y001650D01*
X009926Y001699D01*
X009940Y001747D01*
X009957Y001794D01*
X009978Y001839D01*
X010003Y001883D01*
X010031Y001924D01*
X010063Y001963D01*
X010097Y002000D01*
X010134Y002034D01*
X010174Y002064D01*
X010216Y002091D01*
X010260Y002115D01*
X010306Y002136D01*
X010353Y002152D01*
X010401Y002165D01*
X010451Y002174D01*
X010500Y002179D01*
X010551Y002180D01*
X010601Y002177D01*
X010650Y002170D01*
X010699Y002159D01*
X010747Y002144D01*
X010793Y002126D01*
X010838Y002104D01*
X010881Y002078D01*
X010922Y002049D01*
X010961Y002017D01*
X010997Y001982D01*
X011029Y001944D01*
X011059Y001904D01*
X011086Y001861D01*
X011109Y001817D01*
X011128Y001771D01*
X011144Y001723D01*
X011156Y001674D01*
X011164Y001625D01*
X011168Y001575D01*
X011168Y001525D01*
X011164Y001475D01*
X011156Y001426D01*
X011144Y001377D01*
X011128Y001329D01*
X011109Y001283D01*
X011086Y001239D01*
X011059Y001196D01*
X011029Y001156D01*
X010997Y001118D01*
X010961Y001083D01*
X010922Y001051D01*
X010881Y001022D01*
X010838Y000996D01*
X010793Y000974D01*
X010747Y000956D01*
X010699Y000941D01*
X010650Y000930D01*
X010601Y000923D01*
X010551Y000920D01*
X010500Y000921D01*
X010451Y000926D01*
X010401Y000935D01*
X010353Y000948D01*
X010306Y000964D01*
X010260Y000985D01*
X010216Y001009D01*
X010174Y001036D01*
X010134Y001066D01*
X010097Y001100D01*
X010063Y001137D01*
X010031Y001176D01*
X010003Y001217D01*
X009978Y001261D01*
X009957Y001306D01*
X009940Y001353D01*
X009926Y001401D01*
X009916Y001450D01*
X009910Y001500D01*
X009908Y001550D01*
X010408Y020550D02*
X010410Y020600D01*
X010416Y020650D01*
X010426Y020699D01*
X010440Y020747D01*
X010457Y020794D01*
X010478Y020839D01*
X010503Y020883D01*
X010531Y020924D01*
X010563Y020963D01*
X010597Y021000D01*
X010634Y021034D01*
X010674Y021064D01*
X010716Y021091D01*
X010760Y021115D01*
X010806Y021136D01*
X010853Y021152D01*
X010901Y021165D01*
X010951Y021174D01*
X011000Y021179D01*
X011051Y021180D01*
X011101Y021177D01*
X011150Y021170D01*
X011199Y021159D01*
X011247Y021144D01*
X011293Y021126D01*
X011338Y021104D01*
X011381Y021078D01*
X011422Y021049D01*
X011461Y021017D01*
X011497Y020982D01*
X011529Y020944D01*
X011559Y020904D01*
X011586Y020861D01*
X011609Y020817D01*
X011628Y020771D01*
X011644Y020723D01*
X011656Y020674D01*
X011664Y020625D01*
X011668Y020575D01*
X011668Y020525D01*
X011664Y020475D01*
X011656Y020426D01*
X011644Y020377D01*
X011628Y020329D01*
X011609Y020283D01*
X011586Y020239D01*
X011559Y020196D01*
X011529Y020156D01*
X011497Y020118D01*
X011461Y020083D01*
X011422Y020051D01*
X011381Y020022D01*
X011338Y019996D01*
X011293Y019974D01*
X011247Y019956D01*
X011199Y019941D01*
X011150Y019930D01*
X011101Y019923D01*
X011051Y019920D01*
X011000Y019921D01*
X010951Y019926D01*
X010901Y019935D01*
X010853Y019948D01*
X010806Y019964D01*
X010760Y019985D01*
X010716Y020009D01*
X010674Y020036D01*
X010634Y020066D01*
X010597Y020100D01*
X010563Y020137D01*
X010531Y020176D01*
X010503Y020217D01*
X010478Y020261D01*
X010457Y020306D01*
X010440Y020353D01*
X010426Y020401D01*
X010416Y020450D01*
X010410Y020500D01*
X010408Y020550D01*
D19*
X024288Y018550D02*
X024288Y011750D01*
X028738Y011750D01*
X028738Y016100D01*
D20*
X014468Y013740D03*
D21*
X014563Y014950D03*
X018013Y014950D03*
D22*
X017288Y015050D03*
X016288Y015050D03*
X015288Y015050D03*
D23*
X015788Y014950D03*
X016788Y014950D03*
M02*
