G75*
%MOIN*%
%OFA0B0*%
%FSLAX24Y24*%
%IPPOS*%
%LPD*%
%AMOC8*
5,1,8,0,0,1.08239X$1,22.5*
%
%ADD10OC8,0.0610*%
%ADD11C,0.0560*%
%ADD12OC8,0.0660*%
%ADD13C,0.0600*%
%ADD14OC8,0.0520*%
%ADD15C,0.0160*%
%ADD16C,0.0436*%
D10*
X030088Y010550D03*
X031088Y010550D03*
X031088Y011550D03*
X030088Y011550D03*
X030088Y012550D03*
X031088Y012550D03*
X013238Y018250D03*
X012238Y018250D03*
X011238Y018250D03*
X011238Y019250D03*
X012238Y019250D03*
X013238Y019250D03*
D11*
X016038Y001690D02*
X016038Y001410D01*
X017038Y001410D02*
X017038Y001690D01*
X018038Y001690D02*
X018038Y001410D01*
X019038Y001410D02*
X019038Y001690D01*
X020038Y001690D02*
X020038Y001410D01*
X021038Y001410D02*
X021038Y001690D01*
X022038Y001690D02*
X022038Y001410D01*
X023038Y001410D02*
X023038Y001690D01*
X025038Y001690D02*
X025038Y001410D01*
X026038Y001410D02*
X026038Y001690D01*
X027038Y001690D02*
X027038Y001410D01*
X028038Y001410D02*
X028038Y001690D01*
X029038Y001690D02*
X029038Y001410D01*
X030038Y001410D02*
X030038Y001690D01*
X030038Y020410D02*
X030038Y020690D01*
X029038Y020690D02*
X029038Y020410D01*
X028038Y020410D02*
X028038Y020690D01*
X027038Y020690D02*
X027038Y020410D01*
X026038Y020410D02*
X026038Y020690D01*
X025038Y020690D02*
X025038Y020410D01*
X024038Y020410D02*
X024038Y020690D01*
X023038Y020690D02*
X023038Y020410D01*
X021438Y020410D02*
X021438Y020690D01*
X020438Y020690D02*
X020438Y020410D01*
X019438Y020410D02*
X019438Y020690D01*
X018438Y020690D02*
X018438Y020410D01*
X017438Y020410D02*
X017438Y020690D01*
X016438Y020690D02*
X016438Y020410D01*
X015438Y020410D02*
X015438Y020690D01*
X014438Y020690D02*
X014438Y020410D01*
X013438Y020410D02*
X013438Y020690D01*
X012438Y020690D02*
X012438Y020410D01*
D12*
X015288Y017650D03*
X016288Y017650D03*
X016288Y016650D03*
X015288Y016650D03*
X013238Y016250D03*
X012238Y016250D03*
X012238Y017250D03*
X013238Y017250D03*
X025088Y016900D03*
X026088Y016900D03*
X027088Y016900D03*
X028088Y016900D03*
X028088Y017900D03*
X027088Y017900D03*
X026088Y017900D03*
X025088Y017900D03*
X030238Y006400D03*
X031238Y006400D03*
X031238Y005400D03*
X030238Y005400D03*
D13*
X017288Y014050D02*
X017288Y014350D01*
X016288Y014350D02*
X016288Y014050D01*
X015288Y014050D02*
X015288Y014350D01*
D14*
X016288Y010250D03*
X017288Y010250D03*
X014088Y010250D03*
X013088Y010250D03*
D15*
X016288Y011300D02*
X021038Y011300D01*
X023038Y011150D02*
X023038Y020550D01*
X024038Y020550D02*
X024038Y011200D01*
X028488Y009450D02*
X031588Y009450D01*
X031588Y011550D01*
X031088Y011550D01*
X030088Y011550D02*
X028988Y011550D01*
X028988Y018700D01*
X026088Y018700D01*
X026088Y017900D01*
X025088Y017900D02*
X025088Y019100D01*
X029388Y019100D01*
X029388Y012550D01*
X030088Y012550D01*
X028488Y014300D02*
X028488Y009450D01*
X028488Y014300D02*
X026088Y014300D01*
X026088Y016900D01*
X020038Y014200D02*
X017288Y014200D01*
X020038Y004350D02*
X028388Y004350D01*
D16*
X028388Y004350D03*
X020038Y004350D03*
X023038Y011150D03*
X024038Y011200D03*
X021038Y011300D03*
X020038Y014200D03*
X016288Y011300D03*
M02*
